%TF.GenerationSoftware,KiCad,Pcbnew,9.0.7*%
%TF.CreationDate,2026-02-26T16:04:08+01:00*%
%TF.ProjectId,attiny_switch,61747469-6e79-45f7-9377-697463682e6b,rev?*%
%TF.SameCoordinates,Original*%
%TF.FileFunction,Copper,L2,Bot*%
%TF.FilePolarity,Positive*%
%FSLAX46Y46*%
G04 Gerber Fmt 4.6, Leading zero omitted, Abs format (unit mm)*
G04 Created by KiCad (PCBNEW 9.0.7) date 2026-02-26 16:04:08*
%MOMM*%
%LPD*%
G01*
G04 APERTURE LIST*
G04 Aperture macros list*
%AMRoundRect*
0 Rectangle with rounded corners*
0 $1 Rounding radius*
0 $2 $3 $4 $5 $6 $7 $8 $9 X,Y pos of 4 corners*
0 Add a 4 corners polygon primitive as box body*
4,1,4,$2,$3,$4,$5,$6,$7,$8,$9,$2,$3,0*
0 Add four circle primitives for the rounded corners*
1,1,$1+$1,$2,$3*
1,1,$1+$1,$4,$5*
1,1,$1+$1,$6,$7*
1,1,$1+$1,$8,$9*
0 Add four rect primitives between the rounded corners*
20,1,$1+$1,$2,$3,$4,$5,0*
20,1,$1+$1,$4,$5,$6,$7,0*
20,1,$1+$1,$6,$7,$8,$9,0*
20,1,$1+$1,$8,$9,$2,$3,0*%
G04 Aperture macros list end*
%TA.AperFunction,ComponentPad*%
%ADD10RoundRect,0.250001X1.149999X-1.149999X1.149999X1.149999X-1.149999X1.149999X-1.149999X-1.149999X0*%
%TD*%
%TA.AperFunction,ComponentPad*%
%ADD11C,2.800000*%
%TD*%
%TA.AperFunction,ComponentPad*%
%ADD12C,3.000000*%
%TD*%
%TA.AperFunction,ComponentPad*%
%ADD13RoundRect,0.250000X-0.550000X0.550000X-0.550000X-0.550000X0.550000X-0.550000X0.550000X0.550000X0*%
%TD*%
%TA.AperFunction,ComponentPad*%
%ADD14C,1.600000*%
%TD*%
%TA.AperFunction,ComponentPad*%
%ADD15R,1.700000X1.700000*%
%TD*%
%TA.AperFunction,ComponentPad*%
%ADD16C,1.700000*%
%TD*%
%TA.AperFunction,Conductor*%
%ADD17C,0.500000*%
%TD*%
%TA.AperFunction,Conductor*%
%ADD18C,1.000000*%
%TD*%
G04 APERTURE END LIST*
D10*
%TO.P,J2,1,Pin_1*%
%TO.N,Net-(J2-Pin_1)*%
X65500000Y-166500000D03*
D11*
%TO.P,J2,2,Pin_2*%
%TO.N,GND*%
X65500000Y-161500000D03*
%TD*%
D12*
%TO.P,BT1,2,-*%
%TO.N,GND*%
X48400000Y-146550000D03*
%TO.P,BT1,1,+*%
%TO.N,Net-(BT1-+)*%
X33600000Y-146550000D03*
%TD*%
D11*
%TO.P,J1,2,Pin_2*%
%TO.N,GND*%
X65500000Y-149000000D03*
D10*
%TO.P,J1,1,Pin_1*%
%TO.N,Net-(J1-Pin_1)*%
X65500000Y-154000000D03*
%TD*%
D13*
%TO.P,U3,1*%
%TO.N,Net-(R2-Pad2)*%
X66000000Y-129880000D03*
D14*
%TO.P,U3,2*%
%TO.N,Net-(J4-Pin_2)*%
X63460000Y-129880000D03*
%TO.P,U3,3*%
%TO.N,GND*%
X63460000Y-137500000D03*
%TO.P,U3,4*%
%TO.N,Net-(J6-Pin_1)*%
X66000000Y-137500000D03*
%TD*%
D15*
%TO.P,J5,1,Pin_1*%
%TO.N,Net-(BT1-+)*%
X28000000Y-169000000D03*
D16*
%TO.P,J5,2,Pin_2*%
%TO.N,Net-(J5-Pin_2)*%
X28000000Y-166460000D03*
%TO.P,J5,3,Pin_3*%
%TO.N,Net-(J5-Pin_3)*%
X28000000Y-163920000D03*
%TO.P,J5,4,Pin_4*%
%TO.N,GND*%
X28000000Y-161380000D03*
%TD*%
D10*
%TO.P,J4,1,Pin_1*%
%TO.N,Net-(J4-Pin_1)*%
X65000000Y-117500000D03*
D11*
%TO.P,J4,2,Pin_2*%
%TO.N,Net-(J4-Pin_2)*%
X65000000Y-112500000D03*
%TD*%
D15*
%TO.P,SW1,1,A*%
%TO.N,Net-(BT1-+)*%
X57000000Y-179000000D03*
D16*
%TO.P,SW1,2,B*%
%TO.N,Net-(SW1A-B)*%
X54460000Y-179000000D03*
%TO.P,SW1,3,C*%
%TO.N,Net-(SW1A-C)*%
X51920000Y-179000000D03*
%TD*%
D15*
%TO.P,J3,1,Pin_1*%
%TO.N,Net-(BT1-+)*%
X42540000Y-178000000D03*
D16*
%TO.P,J3,2,Pin_2*%
%TO.N,Net-(J3-Pin_2)*%
X40000000Y-178000000D03*
%TO.P,J3,3,Pin_3*%
%TO.N,GND*%
X37460000Y-178000000D03*
%TD*%
D10*
%TO.P,J6,1,Pin_1*%
%TO.N,Net-(J6-Pin_1)*%
X65000000Y-105000000D03*
D11*
%TO.P,J6,2,Pin_2*%
%TO.N,GND*%
X65000000Y-100000000D03*
%TD*%
D17*
%TO.N,GND*%
X28000000Y-161380000D02*
X42830000Y-146550000D01*
X42830000Y-146550000D02*
X48400000Y-146550000D01*
X48400000Y-146550000D02*
X50850000Y-149000000D01*
X50850000Y-149000000D02*
X65500000Y-149000000D01*
X63460000Y-137500000D02*
X63460000Y-146960000D01*
X63460000Y-146960000D02*
X65500000Y-149000000D01*
%TO.N,Net-(BT1-+)*%
X57000000Y-179000000D02*
X55699000Y-180301000D01*
X55699000Y-180301000D02*
X44841000Y-180301000D01*
X44841000Y-180301000D02*
X42540000Y-178000000D01*
X28000000Y-169000000D02*
X28000000Y-170379892D01*
X28000000Y-170379892D02*
X36921108Y-179301000D01*
X36921108Y-179301000D02*
X41239000Y-179301000D01*
X41239000Y-179301000D02*
X42540000Y-178000000D01*
%TO.N,GND*%
X28000000Y-161380000D02*
X37460000Y-170840000D01*
X37460000Y-170840000D02*
X37460000Y-178000000D01*
D18*
X68500000Y-152000000D02*
X68500000Y-160500000D01*
X65500000Y-149000000D02*
X68500000Y-152000000D01*
X67500000Y-161500000D02*
X65500000Y-161500000D01*
X68500000Y-160500000D02*
X67500000Y-161500000D01*
%TD*%
M02*
