%TF.GenerationSoftware,KiCad,Pcbnew,9.0.7*%
%TF.CreationDate,2026-02-26T16:04:08+01:00*%
%TF.ProjectId,attiny_switch,61747469-6e79-45f7-9377-697463682e6b,rev?*%
%TF.SameCoordinates,Original*%
%TF.FileFunction,Legend,Top*%
%TF.FilePolarity,Positive*%
%FSLAX46Y46*%
G04 Gerber Fmt 4.6, Leading zero omitted, Abs format (unit mm)*
G04 Created by KiCad (PCBNEW 9.0.7) date 2026-02-26 16:04:08*
%MOMM*%
%LPD*%
G01*
G04 APERTURE LIST*
%ADD10C,0.100000*%
%ADD11C,0.150000*%
%ADD12C,0.120000*%
G04 APERTURE END LIST*
D10*
X50161027Y-181705752D02*
X50541979Y-181705752D01*
X50303884Y-181372419D02*
X50303884Y-182229561D01*
X50303884Y-182229561D02*
X50351503Y-182324800D01*
X50351503Y-182324800D02*
X50446741Y-182372419D01*
X50446741Y-182372419D02*
X50541979Y-182372419D01*
X50875313Y-182372419D02*
X50875313Y-181705752D01*
X50875313Y-181372419D02*
X50827694Y-181420038D01*
X50827694Y-181420038D02*
X50875313Y-181467657D01*
X50875313Y-181467657D02*
X50922932Y-181420038D01*
X50922932Y-181420038D02*
X50875313Y-181372419D01*
X50875313Y-181372419D02*
X50875313Y-181467657D01*
X51351503Y-182372419D02*
X51351503Y-181705752D01*
X51351503Y-181800990D02*
X51399122Y-181753371D01*
X51399122Y-181753371D02*
X51494360Y-181705752D01*
X51494360Y-181705752D02*
X51637217Y-181705752D01*
X51637217Y-181705752D02*
X51732455Y-181753371D01*
X51732455Y-181753371D02*
X51780074Y-181848609D01*
X51780074Y-181848609D02*
X51780074Y-182372419D01*
X51780074Y-181848609D02*
X51827693Y-181753371D01*
X51827693Y-181753371D02*
X51922931Y-181705752D01*
X51922931Y-181705752D02*
X52065788Y-181705752D01*
X52065788Y-181705752D02*
X52161027Y-181753371D01*
X52161027Y-181753371D02*
X52208646Y-181848609D01*
X52208646Y-181848609D02*
X52208646Y-182372419D01*
X53065788Y-182324800D02*
X52970550Y-182372419D01*
X52970550Y-182372419D02*
X52780074Y-182372419D01*
X52780074Y-182372419D02*
X52684836Y-182324800D01*
X52684836Y-182324800D02*
X52637217Y-182229561D01*
X52637217Y-182229561D02*
X52637217Y-181848609D01*
X52637217Y-181848609D02*
X52684836Y-181753371D01*
X52684836Y-181753371D02*
X52780074Y-181705752D01*
X52780074Y-181705752D02*
X52970550Y-181705752D01*
X52970550Y-181705752D02*
X53065788Y-181753371D01*
X53065788Y-181753371D02*
X53113407Y-181848609D01*
X53113407Y-181848609D02*
X53113407Y-181943847D01*
X53113407Y-181943847D02*
X52637217Y-182039085D01*
X53541979Y-182372419D02*
X53541979Y-181705752D01*
X53541979Y-181896228D02*
X53589598Y-181800990D01*
X53589598Y-181800990D02*
X53637217Y-181753371D01*
X53637217Y-181753371D02*
X53732455Y-181705752D01*
X53732455Y-181705752D02*
X53827693Y-181705752D01*
X54922932Y-181991466D02*
X55684837Y-181991466D01*
X57065789Y-182372419D02*
X56970551Y-182324800D01*
X56970551Y-182324800D02*
X56922932Y-182277180D01*
X56922932Y-182277180D02*
X56875313Y-182181942D01*
X56875313Y-182181942D02*
X56875313Y-181896228D01*
X56875313Y-181896228D02*
X56922932Y-181800990D01*
X56922932Y-181800990D02*
X56970551Y-181753371D01*
X56970551Y-181753371D02*
X57065789Y-181705752D01*
X57065789Y-181705752D02*
X57208646Y-181705752D01*
X57208646Y-181705752D02*
X57303884Y-181753371D01*
X57303884Y-181753371D02*
X57351503Y-181800990D01*
X57351503Y-181800990D02*
X57399122Y-181896228D01*
X57399122Y-181896228D02*
X57399122Y-182181942D01*
X57399122Y-182181942D02*
X57351503Y-182277180D01*
X57351503Y-182277180D02*
X57303884Y-182324800D01*
X57303884Y-182324800D02*
X57208646Y-182372419D01*
X57208646Y-182372419D02*
X57065789Y-182372419D01*
X57827694Y-181705752D02*
X57827694Y-182372419D01*
X57827694Y-181800990D02*
X57875313Y-181753371D01*
X57875313Y-181753371D02*
X57970551Y-181705752D01*
X57970551Y-181705752D02*
X58113408Y-181705752D01*
X58113408Y-181705752D02*
X58208646Y-181753371D01*
X58208646Y-181753371D02*
X58256265Y-181848609D01*
X58256265Y-181848609D02*
X58256265Y-182372419D01*
X23661027Y-168372419D02*
X23994360Y-169372419D01*
X23994360Y-169372419D02*
X24327693Y-168372419D01*
X25089598Y-169324800D02*
X24994360Y-169372419D01*
X24994360Y-169372419D02*
X24803884Y-169372419D01*
X24803884Y-169372419D02*
X24708646Y-169324800D01*
X24708646Y-169324800D02*
X24661027Y-169277180D01*
X24661027Y-169277180D02*
X24613408Y-169181942D01*
X24613408Y-169181942D02*
X24613408Y-168896228D01*
X24613408Y-168896228D02*
X24661027Y-168800990D01*
X24661027Y-168800990D02*
X24708646Y-168753371D01*
X24708646Y-168753371D02*
X24803884Y-168705752D01*
X24803884Y-168705752D02*
X24994360Y-168705752D01*
X24994360Y-168705752D02*
X25089598Y-168753371D01*
X25946741Y-169324800D02*
X25851503Y-169372419D01*
X25851503Y-169372419D02*
X25661027Y-169372419D01*
X25661027Y-169372419D02*
X25565789Y-169324800D01*
X25565789Y-169324800D02*
X25518170Y-169277180D01*
X25518170Y-169277180D02*
X25470551Y-169181942D01*
X25470551Y-169181942D02*
X25470551Y-168896228D01*
X25470551Y-168896228D02*
X25518170Y-168800990D01*
X25518170Y-168800990D02*
X25565789Y-168753371D01*
X25565789Y-168753371D02*
X25661027Y-168705752D01*
X25661027Y-168705752D02*
X25851503Y-168705752D01*
X25851503Y-168705752D02*
X25946741Y-168753371D01*
X23303884Y-164372419D02*
X23303884Y-163372419D01*
X23303884Y-163372419D02*
X23684836Y-163372419D01*
X23684836Y-163372419D02*
X23780074Y-163420038D01*
X23780074Y-163420038D02*
X23827693Y-163467657D01*
X23827693Y-163467657D02*
X23875312Y-163562895D01*
X23875312Y-163562895D02*
X23875312Y-163705752D01*
X23875312Y-163705752D02*
X23827693Y-163800990D01*
X23827693Y-163800990D02*
X23780074Y-163848609D01*
X23780074Y-163848609D02*
X23684836Y-163896228D01*
X23684836Y-163896228D02*
X23303884Y-163896228D01*
X24637217Y-163848609D02*
X24780074Y-163896228D01*
X24780074Y-163896228D02*
X24827693Y-163943847D01*
X24827693Y-163943847D02*
X24875312Y-164039085D01*
X24875312Y-164039085D02*
X24875312Y-164181942D01*
X24875312Y-164181942D02*
X24827693Y-164277180D01*
X24827693Y-164277180D02*
X24780074Y-164324800D01*
X24780074Y-164324800D02*
X24684836Y-164372419D01*
X24684836Y-164372419D02*
X24303884Y-164372419D01*
X24303884Y-164372419D02*
X24303884Y-163372419D01*
X24303884Y-163372419D02*
X24637217Y-163372419D01*
X24637217Y-163372419D02*
X24732455Y-163420038D01*
X24732455Y-163420038D02*
X24780074Y-163467657D01*
X24780074Y-163467657D02*
X24827693Y-163562895D01*
X24827693Y-163562895D02*
X24827693Y-163658133D01*
X24827693Y-163658133D02*
X24780074Y-163753371D01*
X24780074Y-163753371D02*
X24732455Y-163800990D01*
X24732455Y-163800990D02*
X24637217Y-163848609D01*
X24637217Y-163848609D02*
X24303884Y-163848609D01*
X25208646Y-163372419D02*
X25827693Y-163372419D01*
X25827693Y-163372419D02*
X25494360Y-163753371D01*
X25494360Y-163753371D02*
X25637217Y-163753371D01*
X25637217Y-163753371D02*
X25732455Y-163800990D01*
X25732455Y-163800990D02*
X25780074Y-163848609D01*
X25780074Y-163848609D02*
X25827693Y-163943847D01*
X25827693Y-163943847D02*
X25827693Y-164181942D01*
X25827693Y-164181942D02*
X25780074Y-164277180D01*
X25780074Y-164277180D02*
X25732455Y-164324800D01*
X25732455Y-164324800D02*
X25637217Y-164372419D01*
X25637217Y-164372419D02*
X25351503Y-164372419D01*
X25351503Y-164372419D02*
X25256265Y-164324800D01*
X25256265Y-164324800D02*
X25208646Y-164277180D01*
X23303884Y-166872419D02*
X23303884Y-165872419D01*
X23303884Y-165872419D02*
X23684836Y-165872419D01*
X23684836Y-165872419D02*
X23780074Y-165920038D01*
X23780074Y-165920038D02*
X23827693Y-165967657D01*
X23827693Y-165967657D02*
X23875312Y-166062895D01*
X23875312Y-166062895D02*
X23875312Y-166205752D01*
X23875312Y-166205752D02*
X23827693Y-166300990D01*
X23827693Y-166300990D02*
X23780074Y-166348609D01*
X23780074Y-166348609D02*
X23684836Y-166396228D01*
X23684836Y-166396228D02*
X23303884Y-166396228D01*
X24637217Y-166348609D02*
X24780074Y-166396228D01*
X24780074Y-166396228D02*
X24827693Y-166443847D01*
X24827693Y-166443847D02*
X24875312Y-166539085D01*
X24875312Y-166539085D02*
X24875312Y-166681942D01*
X24875312Y-166681942D02*
X24827693Y-166777180D01*
X24827693Y-166777180D02*
X24780074Y-166824800D01*
X24780074Y-166824800D02*
X24684836Y-166872419D01*
X24684836Y-166872419D02*
X24303884Y-166872419D01*
X24303884Y-166872419D02*
X24303884Y-165872419D01*
X24303884Y-165872419D02*
X24637217Y-165872419D01*
X24637217Y-165872419D02*
X24732455Y-165920038D01*
X24732455Y-165920038D02*
X24780074Y-165967657D01*
X24780074Y-165967657D02*
X24827693Y-166062895D01*
X24827693Y-166062895D02*
X24827693Y-166158133D01*
X24827693Y-166158133D02*
X24780074Y-166253371D01*
X24780074Y-166253371D02*
X24732455Y-166300990D01*
X24732455Y-166300990D02*
X24637217Y-166348609D01*
X24637217Y-166348609D02*
X24303884Y-166348609D01*
X25256265Y-165967657D02*
X25303884Y-165920038D01*
X25303884Y-165920038D02*
X25399122Y-165872419D01*
X25399122Y-165872419D02*
X25637217Y-165872419D01*
X25637217Y-165872419D02*
X25732455Y-165920038D01*
X25732455Y-165920038D02*
X25780074Y-165967657D01*
X25780074Y-165967657D02*
X25827693Y-166062895D01*
X25827693Y-166062895D02*
X25827693Y-166158133D01*
X25827693Y-166158133D02*
X25780074Y-166300990D01*
X25780074Y-166300990D02*
X25208646Y-166872419D01*
X25208646Y-166872419D02*
X25827693Y-166872419D01*
X23827693Y-160420038D02*
X23732455Y-160372419D01*
X23732455Y-160372419D02*
X23589598Y-160372419D01*
X23589598Y-160372419D02*
X23446741Y-160420038D01*
X23446741Y-160420038D02*
X23351503Y-160515276D01*
X23351503Y-160515276D02*
X23303884Y-160610514D01*
X23303884Y-160610514D02*
X23256265Y-160800990D01*
X23256265Y-160800990D02*
X23256265Y-160943847D01*
X23256265Y-160943847D02*
X23303884Y-161134323D01*
X23303884Y-161134323D02*
X23351503Y-161229561D01*
X23351503Y-161229561D02*
X23446741Y-161324800D01*
X23446741Y-161324800D02*
X23589598Y-161372419D01*
X23589598Y-161372419D02*
X23684836Y-161372419D01*
X23684836Y-161372419D02*
X23827693Y-161324800D01*
X23827693Y-161324800D02*
X23875312Y-161277180D01*
X23875312Y-161277180D02*
X23875312Y-160943847D01*
X23875312Y-160943847D02*
X23684836Y-160943847D01*
X24303884Y-161372419D02*
X24303884Y-160372419D01*
X24303884Y-160372419D02*
X24875312Y-161372419D01*
X24875312Y-161372419D02*
X24875312Y-160372419D01*
X25351503Y-161372419D02*
X25351503Y-160372419D01*
X25351503Y-160372419D02*
X25589598Y-160372419D01*
X25589598Y-160372419D02*
X25732455Y-160420038D01*
X25732455Y-160420038D02*
X25827693Y-160515276D01*
X25827693Y-160515276D02*
X25875312Y-160610514D01*
X25875312Y-160610514D02*
X25922931Y-160800990D01*
X25922931Y-160800990D02*
X25922931Y-160943847D01*
X25922931Y-160943847D02*
X25875312Y-161134323D01*
X25875312Y-161134323D02*
X25827693Y-161229561D01*
X25827693Y-161229561D02*
X25732455Y-161324800D01*
X25732455Y-161324800D02*
X25589598Y-161372419D01*
X25589598Y-161372419D02*
X25351503Y-161372419D01*
X23756265Y-158324800D02*
X23899122Y-158372419D01*
X23899122Y-158372419D02*
X24137217Y-158372419D01*
X24137217Y-158372419D02*
X24232455Y-158324800D01*
X24232455Y-158324800D02*
X24280074Y-158277180D01*
X24280074Y-158277180D02*
X24327693Y-158181942D01*
X24327693Y-158181942D02*
X24327693Y-158086704D01*
X24327693Y-158086704D02*
X24280074Y-157991466D01*
X24280074Y-157991466D02*
X24232455Y-157943847D01*
X24232455Y-157943847D02*
X24137217Y-157896228D01*
X24137217Y-157896228D02*
X23946741Y-157848609D01*
X23946741Y-157848609D02*
X23851503Y-157800990D01*
X23851503Y-157800990D02*
X23803884Y-157753371D01*
X23803884Y-157753371D02*
X23756265Y-157658133D01*
X23756265Y-157658133D02*
X23756265Y-157562895D01*
X23756265Y-157562895D02*
X23803884Y-157467657D01*
X23803884Y-157467657D02*
X23851503Y-157420038D01*
X23851503Y-157420038D02*
X23946741Y-157372419D01*
X23946741Y-157372419D02*
X24184836Y-157372419D01*
X24184836Y-157372419D02*
X24327693Y-157420038D01*
X25137217Y-158324800D02*
X25041979Y-158372419D01*
X25041979Y-158372419D02*
X24851503Y-158372419D01*
X24851503Y-158372419D02*
X24756265Y-158324800D01*
X24756265Y-158324800D02*
X24708646Y-158229561D01*
X24708646Y-158229561D02*
X24708646Y-157848609D01*
X24708646Y-157848609D02*
X24756265Y-157753371D01*
X24756265Y-157753371D02*
X24851503Y-157705752D01*
X24851503Y-157705752D02*
X25041979Y-157705752D01*
X25041979Y-157705752D02*
X25137217Y-157753371D01*
X25137217Y-157753371D02*
X25184836Y-157848609D01*
X25184836Y-157848609D02*
X25184836Y-157943847D01*
X25184836Y-157943847D02*
X24708646Y-158039085D01*
X25613408Y-158372419D02*
X25613408Y-157705752D01*
X25613408Y-157896228D02*
X25661027Y-157800990D01*
X25661027Y-157800990D02*
X25708646Y-157753371D01*
X25708646Y-157753371D02*
X25803884Y-157705752D01*
X25803884Y-157705752D02*
X25899122Y-157705752D01*
X26232456Y-158372419D02*
X26232456Y-157705752D01*
X26232456Y-157372419D02*
X26184837Y-157420038D01*
X26184837Y-157420038D02*
X26232456Y-157467657D01*
X26232456Y-157467657D02*
X26280075Y-157420038D01*
X26280075Y-157420038D02*
X26232456Y-157372419D01*
X26232456Y-157372419D02*
X26232456Y-157467657D01*
X27137217Y-158372419D02*
X27137217Y-157848609D01*
X27137217Y-157848609D02*
X27089598Y-157753371D01*
X27089598Y-157753371D02*
X26994360Y-157705752D01*
X26994360Y-157705752D02*
X26803884Y-157705752D01*
X26803884Y-157705752D02*
X26708646Y-157753371D01*
X27137217Y-158324800D02*
X27041979Y-158372419D01*
X27041979Y-158372419D02*
X26803884Y-158372419D01*
X26803884Y-158372419D02*
X26708646Y-158324800D01*
X26708646Y-158324800D02*
X26661027Y-158229561D01*
X26661027Y-158229561D02*
X26661027Y-158134323D01*
X26661027Y-158134323D02*
X26708646Y-158039085D01*
X26708646Y-158039085D02*
X26803884Y-157991466D01*
X26803884Y-157991466D02*
X27041979Y-157991466D01*
X27041979Y-157991466D02*
X27137217Y-157943847D01*
X27756265Y-158372419D02*
X27661027Y-158324800D01*
X27661027Y-158324800D02*
X27613408Y-158229561D01*
X27613408Y-158229561D02*
X27613408Y-157372419D01*
X35303884Y-180262475D02*
X35303884Y-181071998D01*
X35303884Y-181071998D02*
X35351503Y-181167236D01*
X35351503Y-181167236D02*
X35399122Y-181214856D01*
X35399122Y-181214856D02*
X35494360Y-181262475D01*
X35494360Y-181262475D02*
X35684836Y-181262475D01*
X35684836Y-181262475D02*
X35780074Y-181214856D01*
X35780074Y-181214856D02*
X35827693Y-181167236D01*
X35827693Y-181167236D02*
X35875312Y-181071998D01*
X35875312Y-181071998D02*
X35875312Y-180262475D01*
X36351503Y-181262475D02*
X36351503Y-180262475D01*
X36351503Y-180262475D02*
X36732455Y-180262475D01*
X36732455Y-180262475D02*
X36827693Y-180310094D01*
X36827693Y-180310094D02*
X36875312Y-180357713D01*
X36875312Y-180357713D02*
X36922931Y-180452951D01*
X36922931Y-180452951D02*
X36922931Y-180595808D01*
X36922931Y-180595808D02*
X36875312Y-180691046D01*
X36875312Y-180691046D02*
X36827693Y-180738665D01*
X36827693Y-180738665D02*
X36732455Y-180786284D01*
X36732455Y-180786284D02*
X36351503Y-180786284D01*
X37351503Y-181262475D02*
X37351503Y-180262475D01*
X37351503Y-180262475D02*
X37589598Y-180262475D01*
X37589598Y-180262475D02*
X37732455Y-180310094D01*
X37732455Y-180310094D02*
X37827693Y-180405332D01*
X37827693Y-180405332D02*
X37875312Y-180500570D01*
X37875312Y-180500570D02*
X37922931Y-180691046D01*
X37922931Y-180691046D02*
X37922931Y-180833903D01*
X37922931Y-180833903D02*
X37875312Y-181024379D01*
X37875312Y-181024379D02*
X37827693Y-181119617D01*
X37827693Y-181119617D02*
X37732455Y-181214856D01*
X37732455Y-181214856D02*
X37589598Y-181262475D01*
X37589598Y-181262475D02*
X37351503Y-181262475D01*
X38351503Y-181262475D02*
X38351503Y-180262475D01*
X35827693Y-181920038D02*
X35732455Y-181872419D01*
X35732455Y-181872419D02*
X35589598Y-181872419D01*
X35589598Y-181872419D02*
X35446741Y-181920038D01*
X35446741Y-181920038D02*
X35351503Y-182015276D01*
X35351503Y-182015276D02*
X35303884Y-182110514D01*
X35303884Y-182110514D02*
X35256265Y-182300990D01*
X35256265Y-182300990D02*
X35256265Y-182443847D01*
X35256265Y-182443847D02*
X35303884Y-182634323D01*
X35303884Y-182634323D02*
X35351503Y-182729561D01*
X35351503Y-182729561D02*
X35446741Y-182824800D01*
X35446741Y-182824800D02*
X35589598Y-182872419D01*
X35589598Y-182872419D02*
X35684836Y-182872419D01*
X35684836Y-182872419D02*
X35827693Y-182824800D01*
X35827693Y-182824800D02*
X35875312Y-182777180D01*
X35875312Y-182777180D02*
X35875312Y-182443847D01*
X35875312Y-182443847D02*
X35684836Y-182443847D01*
X36303884Y-182872419D02*
X36303884Y-181872419D01*
X36303884Y-181872419D02*
X36875312Y-182872419D01*
X36875312Y-182872419D02*
X36875312Y-181872419D01*
X37351503Y-182872419D02*
X37351503Y-181872419D01*
X37351503Y-181872419D02*
X37589598Y-181872419D01*
X37589598Y-181872419D02*
X37732455Y-181920038D01*
X37732455Y-181920038D02*
X37827693Y-182015276D01*
X37827693Y-182015276D02*
X37875312Y-182110514D01*
X37875312Y-182110514D02*
X37922931Y-182300990D01*
X37922931Y-182300990D02*
X37922931Y-182443847D01*
X37922931Y-182443847D02*
X37875312Y-182634323D01*
X37875312Y-182634323D02*
X37827693Y-182729561D01*
X37827693Y-182729561D02*
X37732455Y-182824800D01*
X37732455Y-182824800D02*
X37589598Y-182872419D01*
X37589598Y-182872419D02*
X37351503Y-182872419D01*
X38351503Y-182491466D02*
X39113408Y-182491466D01*
X39541979Y-182824800D02*
X39684836Y-182872419D01*
X39684836Y-182872419D02*
X39922931Y-182872419D01*
X39922931Y-182872419D02*
X40018169Y-182824800D01*
X40018169Y-182824800D02*
X40065788Y-182777180D01*
X40065788Y-182777180D02*
X40113407Y-182681942D01*
X40113407Y-182681942D02*
X40113407Y-182586704D01*
X40113407Y-182586704D02*
X40065788Y-182491466D01*
X40065788Y-182491466D02*
X40018169Y-182443847D01*
X40018169Y-182443847D02*
X39922931Y-182396228D01*
X39922931Y-182396228D02*
X39732455Y-182348609D01*
X39732455Y-182348609D02*
X39637217Y-182300990D01*
X39637217Y-182300990D02*
X39589598Y-182253371D01*
X39589598Y-182253371D02*
X39541979Y-182158133D01*
X39541979Y-182158133D02*
X39541979Y-182062895D01*
X39541979Y-182062895D02*
X39589598Y-181967657D01*
X39589598Y-181967657D02*
X39637217Y-181920038D01*
X39637217Y-181920038D02*
X39732455Y-181872419D01*
X39732455Y-181872419D02*
X39970550Y-181872419D01*
X39970550Y-181872419D02*
X40113407Y-181920038D01*
X40541979Y-182491466D02*
X41303884Y-182491466D01*
X41637217Y-181872419D02*
X41970550Y-182872419D01*
X41970550Y-182872419D02*
X42303883Y-181872419D01*
X43065788Y-182824800D02*
X42970550Y-182872419D01*
X42970550Y-182872419D02*
X42780074Y-182872419D01*
X42780074Y-182872419D02*
X42684836Y-182824800D01*
X42684836Y-182824800D02*
X42637217Y-182777180D01*
X42637217Y-182777180D02*
X42589598Y-182681942D01*
X42589598Y-182681942D02*
X42589598Y-182396228D01*
X42589598Y-182396228D02*
X42637217Y-182300990D01*
X42637217Y-182300990D02*
X42684836Y-182253371D01*
X42684836Y-182253371D02*
X42780074Y-182205752D01*
X42780074Y-182205752D02*
X42970550Y-182205752D01*
X42970550Y-182205752D02*
X43065788Y-182253371D01*
X43922931Y-182824800D02*
X43827693Y-182872419D01*
X43827693Y-182872419D02*
X43637217Y-182872419D01*
X43637217Y-182872419D02*
X43541979Y-182824800D01*
X43541979Y-182824800D02*
X43494360Y-182777180D01*
X43494360Y-182777180D02*
X43446741Y-182681942D01*
X43446741Y-182681942D02*
X43446741Y-182396228D01*
X43446741Y-182396228D02*
X43494360Y-182300990D01*
X43494360Y-182300990D02*
X43541979Y-182253371D01*
X43541979Y-182253371D02*
X43637217Y-182205752D01*
X43637217Y-182205752D02*
X43827693Y-182205752D01*
X43827693Y-182205752D02*
X43922931Y-182253371D01*
X70324800Y-104243734D02*
X70372419Y-104100877D01*
X70372419Y-104100877D02*
X70372419Y-103862782D01*
X70372419Y-103862782D02*
X70324800Y-103767544D01*
X70324800Y-103767544D02*
X70277180Y-103719925D01*
X70277180Y-103719925D02*
X70181942Y-103672306D01*
X70181942Y-103672306D02*
X70086704Y-103672306D01*
X70086704Y-103672306D02*
X69991466Y-103719925D01*
X69991466Y-103719925D02*
X69943847Y-103767544D01*
X69943847Y-103767544D02*
X69896228Y-103862782D01*
X69896228Y-103862782D02*
X69848609Y-104053258D01*
X69848609Y-104053258D02*
X69800990Y-104148496D01*
X69800990Y-104148496D02*
X69753371Y-104196115D01*
X69753371Y-104196115D02*
X69658133Y-104243734D01*
X69658133Y-104243734D02*
X69562895Y-104243734D01*
X69562895Y-104243734D02*
X69467657Y-104196115D01*
X69467657Y-104196115D02*
X69420038Y-104148496D01*
X69420038Y-104148496D02*
X69372419Y-104053258D01*
X69372419Y-104053258D02*
X69372419Y-103815163D01*
X69372419Y-103815163D02*
X69420038Y-103672306D01*
X70372419Y-103243734D02*
X69705752Y-103243734D01*
X69372419Y-103243734D02*
X69420038Y-103291353D01*
X69420038Y-103291353D02*
X69467657Y-103243734D01*
X69467657Y-103243734D02*
X69420038Y-103196115D01*
X69420038Y-103196115D02*
X69372419Y-103243734D01*
X69372419Y-103243734D02*
X69467657Y-103243734D01*
X69705752Y-102338973D02*
X70515276Y-102338973D01*
X70515276Y-102338973D02*
X70610514Y-102386592D01*
X70610514Y-102386592D02*
X70658133Y-102434211D01*
X70658133Y-102434211D02*
X70705752Y-102529449D01*
X70705752Y-102529449D02*
X70705752Y-102672306D01*
X70705752Y-102672306D02*
X70658133Y-102767544D01*
X70324800Y-102338973D02*
X70372419Y-102434211D01*
X70372419Y-102434211D02*
X70372419Y-102624687D01*
X70372419Y-102624687D02*
X70324800Y-102719925D01*
X70324800Y-102719925D02*
X70277180Y-102767544D01*
X70277180Y-102767544D02*
X70181942Y-102815163D01*
X70181942Y-102815163D02*
X69896228Y-102815163D01*
X69896228Y-102815163D02*
X69800990Y-102767544D01*
X69800990Y-102767544D02*
X69753371Y-102719925D01*
X69753371Y-102719925D02*
X69705752Y-102624687D01*
X69705752Y-102624687D02*
X69705752Y-102434211D01*
X69705752Y-102434211D02*
X69753371Y-102338973D01*
X69705752Y-101862782D02*
X70372419Y-101862782D01*
X69800990Y-101862782D02*
X69753371Y-101815163D01*
X69753371Y-101815163D02*
X69705752Y-101719925D01*
X69705752Y-101719925D02*
X69705752Y-101577068D01*
X69705752Y-101577068D02*
X69753371Y-101481830D01*
X69753371Y-101481830D02*
X69848609Y-101434211D01*
X69848609Y-101434211D02*
X70372419Y-101434211D01*
X70372419Y-100529449D02*
X69848609Y-100529449D01*
X69848609Y-100529449D02*
X69753371Y-100577068D01*
X69753371Y-100577068D02*
X69705752Y-100672306D01*
X69705752Y-100672306D02*
X69705752Y-100862782D01*
X69705752Y-100862782D02*
X69753371Y-100958020D01*
X70324800Y-100529449D02*
X70372419Y-100624687D01*
X70372419Y-100624687D02*
X70372419Y-100862782D01*
X70372419Y-100862782D02*
X70324800Y-100958020D01*
X70324800Y-100958020D02*
X70229561Y-101005639D01*
X70229561Y-101005639D02*
X70134323Y-101005639D01*
X70134323Y-101005639D02*
X70039085Y-100958020D01*
X70039085Y-100958020D02*
X69991466Y-100862782D01*
X69991466Y-100862782D02*
X69991466Y-100624687D01*
X69991466Y-100624687D02*
X69943847Y-100529449D01*
X70372419Y-99910401D02*
X70324800Y-100005639D01*
X70324800Y-100005639D02*
X70229561Y-100053258D01*
X70229561Y-100053258D02*
X69372419Y-100053258D01*
X70324800Y-119243734D02*
X70372419Y-119100877D01*
X70372419Y-119100877D02*
X70372419Y-118862782D01*
X70372419Y-118862782D02*
X70324800Y-118767544D01*
X70324800Y-118767544D02*
X70277180Y-118719925D01*
X70277180Y-118719925D02*
X70181942Y-118672306D01*
X70181942Y-118672306D02*
X70086704Y-118672306D01*
X70086704Y-118672306D02*
X69991466Y-118719925D01*
X69991466Y-118719925D02*
X69943847Y-118767544D01*
X69943847Y-118767544D02*
X69896228Y-118862782D01*
X69896228Y-118862782D02*
X69848609Y-119053258D01*
X69848609Y-119053258D02*
X69800990Y-119148496D01*
X69800990Y-119148496D02*
X69753371Y-119196115D01*
X69753371Y-119196115D02*
X69658133Y-119243734D01*
X69658133Y-119243734D02*
X69562895Y-119243734D01*
X69562895Y-119243734D02*
X69467657Y-119196115D01*
X69467657Y-119196115D02*
X69420038Y-119148496D01*
X69420038Y-119148496D02*
X69372419Y-119053258D01*
X69372419Y-119053258D02*
X69372419Y-118815163D01*
X69372419Y-118815163D02*
X69420038Y-118672306D01*
X70372419Y-118243734D02*
X69705752Y-118243734D01*
X69372419Y-118243734D02*
X69420038Y-118291353D01*
X69420038Y-118291353D02*
X69467657Y-118243734D01*
X69467657Y-118243734D02*
X69420038Y-118196115D01*
X69420038Y-118196115D02*
X69372419Y-118243734D01*
X69372419Y-118243734D02*
X69467657Y-118243734D01*
X69705752Y-117338973D02*
X70515276Y-117338973D01*
X70515276Y-117338973D02*
X70610514Y-117386592D01*
X70610514Y-117386592D02*
X70658133Y-117434211D01*
X70658133Y-117434211D02*
X70705752Y-117529449D01*
X70705752Y-117529449D02*
X70705752Y-117672306D01*
X70705752Y-117672306D02*
X70658133Y-117767544D01*
X70324800Y-117338973D02*
X70372419Y-117434211D01*
X70372419Y-117434211D02*
X70372419Y-117624687D01*
X70372419Y-117624687D02*
X70324800Y-117719925D01*
X70324800Y-117719925D02*
X70277180Y-117767544D01*
X70277180Y-117767544D02*
X70181942Y-117815163D01*
X70181942Y-117815163D02*
X69896228Y-117815163D01*
X69896228Y-117815163D02*
X69800990Y-117767544D01*
X69800990Y-117767544D02*
X69753371Y-117719925D01*
X69753371Y-117719925D02*
X69705752Y-117624687D01*
X69705752Y-117624687D02*
X69705752Y-117434211D01*
X69705752Y-117434211D02*
X69753371Y-117338973D01*
X69705752Y-116862782D02*
X70372419Y-116862782D01*
X69800990Y-116862782D02*
X69753371Y-116815163D01*
X69753371Y-116815163D02*
X69705752Y-116719925D01*
X69705752Y-116719925D02*
X69705752Y-116577068D01*
X69705752Y-116577068D02*
X69753371Y-116481830D01*
X69753371Y-116481830D02*
X69848609Y-116434211D01*
X69848609Y-116434211D02*
X70372419Y-116434211D01*
X70372419Y-115529449D02*
X69848609Y-115529449D01*
X69848609Y-115529449D02*
X69753371Y-115577068D01*
X69753371Y-115577068D02*
X69705752Y-115672306D01*
X69705752Y-115672306D02*
X69705752Y-115862782D01*
X69705752Y-115862782D02*
X69753371Y-115958020D01*
X70324800Y-115529449D02*
X70372419Y-115624687D01*
X70372419Y-115624687D02*
X70372419Y-115862782D01*
X70372419Y-115862782D02*
X70324800Y-115958020D01*
X70324800Y-115958020D02*
X70229561Y-116005639D01*
X70229561Y-116005639D02*
X70134323Y-116005639D01*
X70134323Y-116005639D02*
X70039085Y-115958020D01*
X70039085Y-115958020D02*
X69991466Y-115862782D01*
X69991466Y-115862782D02*
X69991466Y-115624687D01*
X69991466Y-115624687D02*
X69943847Y-115529449D01*
X70372419Y-114910401D02*
X70324800Y-115005639D01*
X70324800Y-115005639D02*
X70229561Y-115053258D01*
X70229561Y-115053258D02*
X69372419Y-115053258D01*
X70753371Y-113481829D02*
X70705752Y-113529448D01*
X70705752Y-113529448D02*
X70562895Y-113624686D01*
X70562895Y-113624686D02*
X70467657Y-113672305D01*
X70467657Y-113672305D02*
X70324800Y-113719924D01*
X70324800Y-113719924D02*
X70086704Y-113767543D01*
X70086704Y-113767543D02*
X69896228Y-113767543D01*
X69896228Y-113767543D02*
X69658133Y-113719924D01*
X69658133Y-113719924D02*
X69515276Y-113672305D01*
X69515276Y-113672305D02*
X69420038Y-113624686D01*
X69420038Y-113624686D02*
X69277180Y-113529448D01*
X69277180Y-113529448D02*
X69229561Y-113481829D01*
X69372419Y-112910400D02*
X69372419Y-112719924D01*
X69372419Y-112719924D02*
X69420038Y-112624686D01*
X69420038Y-112624686D02*
X69515276Y-112529448D01*
X69515276Y-112529448D02*
X69705752Y-112481829D01*
X69705752Y-112481829D02*
X70039085Y-112481829D01*
X70039085Y-112481829D02*
X70229561Y-112529448D01*
X70229561Y-112529448D02*
X70324800Y-112624686D01*
X70324800Y-112624686D02*
X70372419Y-112719924D01*
X70372419Y-112719924D02*
X70372419Y-112910400D01*
X70372419Y-112910400D02*
X70324800Y-113005638D01*
X70324800Y-113005638D02*
X70229561Y-113100876D01*
X70229561Y-113100876D02*
X70039085Y-113148495D01*
X70039085Y-113148495D02*
X69705752Y-113148495D01*
X69705752Y-113148495D02*
X69515276Y-113100876D01*
X69515276Y-113100876D02*
X69420038Y-113005638D01*
X69420038Y-113005638D02*
X69372419Y-112910400D01*
X70372419Y-112053257D02*
X69372419Y-112053257D01*
X70372419Y-111481829D02*
X69800990Y-111910400D01*
X69372419Y-111481829D02*
X69943847Y-112053257D01*
X70753371Y-111148495D02*
X70705752Y-111100876D01*
X70705752Y-111100876D02*
X70562895Y-111005638D01*
X70562895Y-111005638D02*
X70467657Y-110958019D01*
X70467657Y-110958019D02*
X70324800Y-110910400D01*
X70324800Y-110910400D02*
X70086704Y-110862781D01*
X70086704Y-110862781D02*
X69896228Y-110862781D01*
X69896228Y-110862781D02*
X69658133Y-110910400D01*
X69658133Y-110910400D02*
X69515276Y-110958019D01*
X69515276Y-110958019D02*
X69420038Y-111005638D01*
X69420038Y-111005638D02*
X69277180Y-111100876D01*
X69277180Y-111100876D02*
X69229561Y-111148495D01*
X70491466Y-154196115D02*
X70491466Y-153434211D01*
X70872419Y-153815163D02*
X70110514Y-153815163D01*
X70872419Y-151434210D02*
X70205752Y-151434210D01*
X69872419Y-151434210D02*
X69920038Y-151481829D01*
X69920038Y-151481829D02*
X69967657Y-151434210D01*
X69967657Y-151434210D02*
X69920038Y-151386591D01*
X69920038Y-151386591D02*
X69872419Y-151434210D01*
X69872419Y-151434210D02*
X69967657Y-151434210D01*
X70205752Y-150958020D02*
X70872419Y-150958020D01*
X70300990Y-150958020D02*
X70253371Y-150910401D01*
X70253371Y-150910401D02*
X70205752Y-150815163D01*
X70205752Y-150815163D02*
X70205752Y-150672306D01*
X70205752Y-150672306D02*
X70253371Y-150577068D01*
X70253371Y-150577068D02*
X70348609Y-150529449D01*
X70348609Y-150529449D02*
X70872419Y-150529449D01*
X70491466Y-149291353D02*
X70491466Y-148529449D01*
X70491466Y-166696115D02*
X70491466Y-165934211D01*
X70872419Y-166315163D02*
X70110514Y-166315163D01*
X70872419Y-164553258D02*
X70824800Y-164648496D01*
X70824800Y-164648496D02*
X70777180Y-164696115D01*
X70777180Y-164696115D02*
X70681942Y-164743734D01*
X70681942Y-164743734D02*
X70396228Y-164743734D01*
X70396228Y-164743734D02*
X70300990Y-164696115D01*
X70300990Y-164696115D02*
X70253371Y-164648496D01*
X70253371Y-164648496D02*
X70205752Y-164553258D01*
X70205752Y-164553258D02*
X70205752Y-164410401D01*
X70205752Y-164410401D02*
X70253371Y-164315163D01*
X70253371Y-164315163D02*
X70300990Y-164267544D01*
X70300990Y-164267544D02*
X70396228Y-164219925D01*
X70396228Y-164219925D02*
X70681942Y-164219925D01*
X70681942Y-164219925D02*
X70777180Y-164267544D01*
X70777180Y-164267544D02*
X70824800Y-164315163D01*
X70824800Y-164315163D02*
X70872419Y-164410401D01*
X70872419Y-164410401D02*
X70872419Y-164553258D01*
X70205752Y-163362782D02*
X70872419Y-163362782D01*
X70205752Y-163791353D02*
X70729561Y-163791353D01*
X70729561Y-163791353D02*
X70824800Y-163743734D01*
X70824800Y-163743734D02*
X70872419Y-163648496D01*
X70872419Y-163648496D02*
X70872419Y-163505639D01*
X70872419Y-163505639D02*
X70824800Y-163410401D01*
X70824800Y-163410401D02*
X70777180Y-163362782D01*
X70205752Y-163029448D02*
X70205752Y-162648496D01*
X69872419Y-162886591D02*
X70729561Y-162886591D01*
X70729561Y-162886591D02*
X70824800Y-162838972D01*
X70824800Y-162838972D02*
X70872419Y-162743734D01*
X70872419Y-162743734D02*
X70872419Y-162648496D01*
X70491466Y-161553257D02*
X70491466Y-160791353D01*
D11*
X43833333Y-169954819D02*
X43500000Y-169478628D01*
X43261905Y-169954819D02*
X43261905Y-168954819D01*
X43261905Y-168954819D02*
X43642857Y-168954819D01*
X43642857Y-168954819D02*
X43738095Y-169002438D01*
X43738095Y-169002438D02*
X43785714Y-169050057D01*
X43785714Y-169050057D02*
X43833333Y-169145295D01*
X43833333Y-169145295D02*
X43833333Y-169288152D01*
X43833333Y-169288152D02*
X43785714Y-169383390D01*
X43785714Y-169383390D02*
X43738095Y-169431009D01*
X43738095Y-169431009D02*
X43642857Y-169478628D01*
X43642857Y-169478628D02*
X43261905Y-169478628D01*
X44785714Y-169954819D02*
X44214286Y-169954819D01*
X44500000Y-169954819D02*
X44500000Y-168954819D01*
X44500000Y-168954819D02*
X44404762Y-169097676D01*
X44404762Y-169097676D02*
X44309524Y-169192914D01*
X44309524Y-169192914D02*
X44214286Y-169240533D01*
X60333333Y-171124819D02*
X60000000Y-170648628D01*
X59761905Y-171124819D02*
X59761905Y-170124819D01*
X59761905Y-170124819D02*
X60142857Y-170124819D01*
X60142857Y-170124819D02*
X60238095Y-170172438D01*
X60238095Y-170172438D02*
X60285714Y-170220057D01*
X60285714Y-170220057D02*
X60333333Y-170315295D01*
X60333333Y-170315295D02*
X60333333Y-170458152D01*
X60333333Y-170458152D02*
X60285714Y-170553390D01*
X60285714Y-170553390D02*
X60238095Y-170601009D01*
X60238095Y-170601009D02*
X60142857Y-170648628D01*
X60142857Y-170648628D02*
X59761905Y-170648628D01*
X61238095Y-170124819D02*
X60761905Y-170124819D01*
X60761905Y-170124819D02*
X60714286Y-170601009D01*
X60714286Y-170601009D02*
X60761905Y-170553390D01*
X60761905Y-170553390D02*
X60857143Y-170505771D01*
X60857143Y-170505771D02*
X61095238Y-170505771D01*
X61095238Y-170505771D02*
X61190476Y-170553390D01*
X61190476Y-170553390D02*
X61238095Y-170601009D01*
X61238095Y-170601009D02*
X61285714Y-170696247D01*
X61285714Y-170696247D02*
X61285714Y-170934342D01*
X61285714Y-170934342D02*
X61238095Y-171029580D01*
X61238095Y-171029580D02*
X61190476Y-171077200D01*
X61190476Y-171077200D02*
X61095238Y-171124819D01*
X61095238Y-171124819D02*
X60857143Y-171124819D01*
X60857143Y-171124819D02*
X60761905Y-171077200D01*
X60761905Y-171077200D02*
X60714286Y-171029580D01*
X59834819Y-164583333D02*
X60549104Y-164583333D01*
X60549104Y-164583333D02*
X60691961Y-164630952D01*
X60691961Y-164630952D02*
X60787200Y-164726190D01*
X60787200Y-164726190D02*
X60834819Y-164869047D01*
X60834819Y-164869047D02*
X60834819Y-164964285D01*
X59930057Y-164154761D02*
X59882438Y-164107142D01*
X59882438Y-164107142D02*
X59834819Y-164011904D01*
X59834819Y-164011904D02*
X59834819Y-163773809D01*
X59834819Y-163773809D02*
X59882438Y-163678571D01*
X59882438Y-163678571D02*
X59930057Y-163630952D01*
X59930057Y-163630952D02*
X60025295Y-163583333D01*
X60025295Y-163583333D02*
X60120533Y-163583333D01*
X60120533Y-163583333D02*
X60263390Y-163630952D01*
X60263390Y-163630952D02*
X60834819Y-164202380D01*
X60834819Y-164202380D02*
X60834819Y-163583333D01*
X66761905Y-174784819D02*
X66761905Y-173784819D01*
X66761905Y-173784819D02*
X67000000Y-173784819D01*
X67000000Y-173784819D02*
X67142857Y-173832438D01*
X67142857Y-173832438D02*
X67238095Y-173927676D01*
X67238095Y-173927676D02*
X67285714Y-174022914D01*
X67285714Y-174022914D02*
X67333333Y-174213390D01*
X67333333Y-174213390D02*
X67333333Y-174356247D01*
X67333333Y-174356247D02*
X67285714Y-174546723D01*
X67285714Y-174546723D02*
X67238095Y-174641961D01*
X67238095Y-174641961D02*
X67142857Y-174737200D01*
X67142857Y-174737200D02*
X67000000Y-174784819D01*
X67000000Y-174784819D02*
X66761905Y-174784819D01*
X68285714Y-174784819D02*
X67714286Y-174784819D01*
X68000000Y-174784819D02*
X68000000Y-173784819D01*
X68000000Y-173784819D02*
X67904762Y-173927676D01*
X67904762Y-173927676D02*
X67809524Y-174022914D01*
X67809524Y-174022914D02*
X67714286Y-174070533D01*
X48833333Y-169954819D02*
X48500000Y-169478628D01*
X48261905Y-169954819D02*
X48261905Y-168954819D01*
X48261905Y-168954819D02*
X48642857Y-168954819D01*
X48642857Y-168954819D02*
X48738095Y-169002438D01*
X48738095Y-169002438D02*
X48785714Y-169050057D01*
X48785714Y-169050057D02*
X48833333Y-169145295D01*
X48833333Y-169145295D02*
X48833333Y-169288152D01*
X48833333Y-169288152D02*
X48785714Y-169383390D01*
X48785714Y-169383390D02*
X48738095Y-169431009D01*
X48738095Y-169431009D02*
X48642857Y-169478628D01*
X48642857Y-169478628D02*
X48261905Y-169478628D01*
X49166667Y-168954819D02*
X49785714Y-168954819D01*
X49785714Y-168954819D02*
X49452381Y-169335771D01*
X49452381Y-169335771D02*
X49595238Y-169335771D01*
X49595238Y-169335771D02*
X49690476Y-169383390D01*
X49690476Y-169383390D02*
X49738095Y-169431009D01*
X49738095Y-169431009D02*
X49785714Y-169526247D01*
X49785714Y-169526247D02*
X49785714Y-169764342D01*
X49785714Y-169764342D02*
X49738095Y-169859580D01*
X49738095Y-169859580D02*
X49690476Y-169907200D01*
X49690476Y-169907200D02*
X49595238Y-169954819D01*
X49595238Y-169954819D02*
X49309524Y-169954819D01*
X49309524Y-169954819D02*
X49214286Y-169907200D01*
X49214286Y-169907200D02*
X49166667Y-169859580D01*
D10*
X40214285Y-139433609D02*
X40357142Y-139481228D01*
X40357142Y-139481228D02*
X40404761Y-139528847D01*
X40404761Y-139528847D02*
X40452380Y-139624085D01*
X40452380Y-139624085D02*
X40452380Y-139766942D01*
X40452380Y-139766942D02*
X40404761Y-139862180D01*
X40404761Y-139862180D02*
X40357142Y-139909800D01*
X40357142Y-139909800D02*
X40261904Y-139957419D01*
X40261904Y-139957419D02*
X39880952Y-139957419D01*
X39880952Y-139957419D02*
X39880952Y-138957419D01*
X39880952Y-138957419D02*
X40214285Y-138957419D01*
X40214285Y-138957419D02*
X40309523Y-139005038D01*
X40309523Y-139005038D02*
X40357142Y-139052657D01*
X40357142Y-139052657D02*
X40404761Y-139147895D01*
X40404761Y-139147895D02*
X40404761Y-139243133D01*
X40404761Y-139243133D02*
X40357142Y-139338371D01*
X40357142Y-139338371D02*
X40309523Y-139385990D01*
X40309523Y-139385990D02*
X40214285Y-139433609D01*
X40214285Y-139433609D02*
X39880952Y-139433609D01*
X40738095Y-138957419D02*
X41309523Y-138957419D01*
X41023809Y-139957419D02*
X41023809Y-138957419D01*
X42166666Y-139957419D02*
X41595238Y-139957419D01*
X41880952Y-139957419D02*
X41880952Y-138957419D01*
X41880952Y-138957419D02*
X41785714Y-139100276D01*
X41785714Y-139100276D02*
X41690476Y-139195514D01*
X41690476Y-139195514D02*
X41595238Y-139243133D01*
X48103884Y-144041466D02*
X48865789Y-144041466D01*
X33303884Y-144041466D02*
X34065789Y-144041466D01*
X33684836Y-144422419D02*
X33684836Y-143660514D01*
D11*
X59834819Y-152083333D02*
X60549104Y-152083333D01*
X60549104Y-152083333D02*
X60691961Y-152130952D01*
X60691961Y-152130952D02*
X60787200Y-152226190D01*
X60787200Y-152226190D02*
X60834819Y-152369047D01*
X60834819Y-152369047D02*
X60834819Y-152464285D01*
X60834819Y-151083333D02*
X60834819Y-151654761D01*
X60834819Y-151369047D02*
X59834819Y-151369047D01*
X59834819Y-151369047D02*
X59977676Y-151464285D01*
X59977676Y-151464285D02*
X60072914Y-151559523D01*
X60072914Y-151559523D02*
X60120533Y-151654761D01*
X39263095Y-167954819D02*
X39263095Y-168764342D01*
X39263095Y-168764342D02*
X39310714Y-168859580D01*
X39310714Y-168859580D02*
X39358333Y-168907200D01*
X39358333Y-168907200D02*
X39453571Y-168954819D01*
X39453571Y-168954819D02*
X39644047Y-168954819D01*
X39644047Y-168954819D02*
X39739285Y-168907200D01*
X39739285Y-168907200D02*
X39786904Y-168859580D01*
X39786904Y-168859580D02*
X39834523Y-168764342D01*
X39834523Y-168764342D02*
X39834523Y-167954819D01*
X40834523Y-168954819D02*
X40263095Y-168954819D01*
X40548809Y-168954819D02*
X40548809Y-167954819D01*
X40548809Y-167954819D02*
X40453571Y-168097676D01*
X40453571Y-168097676D02*
X40358333Y-168192914D01*
X40358333Y-168192914D02*
X40263095Y-168240533D01*
X67784819Y-134451904D02*
X68594342Y-134451904D01*
X68594342Y-134451904D02*
X68689580Y-134404285D01*
X68689580Y-134404285D02*
X68737200Y-134356666D01*
X68737200Y-134356666D02*
X68784819Y-134261428D01*
X68784819Y-134261428D02*
X68784819Y-134070952D01*
X68784819Y-134070952D02*
X68737200Y-133975714D01*
X68737200Y-133975714D02*
X68689580Y-133928095D01*
X68689580Y-133928095D02*
X68594342Y-133880476D01*
X68594342Y-133880476D02*
X67784819Y-133880476D01*
X67784819Y-133499523D02*
X67784819Y-132880476D01*
X67784819Y-132880476D02*
X68165771Y-133213809D01*
X68165771Y-133213809D02*
X68165771Y-133070952D01*
X68165771Y-133070952D02*
X68213390Y-132975714D01*
X68213390Y-132975714D02*
X68261009Y-132928095D01*
X68261009Y-132928095D02*
X68356247Y-132880476D01*
X68356247Y-132880476D02*
X68594342Y-132880476D01*
X68594342Y-132880476D02*
X68689580Y-132928095D01*
X68689580Y-132928095D02*
X68737200Y-132975714D01*
X68737200Y-132975714D02*
X68784819Y-133070952D01*
X68784819Y-133070952D02*
X68784819Y-133356666D01*
X68784819Y-133356666D02*
X68737200Y-133451904D01*
X68737200Y-133451904D02*
X68689580Y-133499523D01*
X43833333Y-155859580D02*
X43785714Y-155907200D01*
X43785714Y-155907200D02*
X43642857Y-155954819D01*
X43642857Y-155954819D02*
X43547619Y-155954819D01*
X43547619Y-155954819D02*
X43404762Y-155907200D01*
X43404762Y-155907200D02*
X43309524Y-155811961D01*
X43309524Y-155811961D02*
X43261905Y-155716723D01*
X43261905Y-155716723D02*
X43214286Y-155526247D01*
X43214286Y-155526247D02*
X43214286Y-155383390D01*
X43214286Y-155383390D02*
X43261905Y-155192914D01*
X43261905Y-155192914D02*
X43309524Y-155097676D01*
X43309524Y-155097676D02*
X43404762Y-155002438D01*
X43404762Y-155002438D02*
X43547619Y-154954819D01*
X43547619Y-154954819D02*
X43642857Y-154954819D01*
X43642857Y-154954819D02*
X43785714Y-155002438D01*
X43785714Y-155002438D02*
X43833333Y-155050057D01*
X44214286Y-155050057D02*
X44261905Y-155002438D01*
X44261905Y-155002438D02*
X44357143Y-154954819D01*
X44357143Y-154954819D02*
X44595238Y-154954819D01*
X44595238Y-154954819D02*
X44690476Y-155002438D01*
X44690476Y-155002438D02*
X44738095Y-155050057D01*
X44738095Y-155050057D02*
X44785714Y-155145295D01*
X44785714Y-155145295D02*
X44785714Y-155240533D01*
X44785714Y-155240533D02*
X44738095Y-155383390D01*
X44738095Y-155383390D02*
X44166667Y-155954819D01*
X44166667Y-155954819D02*
X44785714Y-155954819D01*
X53238095Y-167454819D02*
X53238095Y-168264342D01*
X53238095Y-168264342D02*
X53285714Y-168359580D01*
X53285714Y-168359580D02*
X53333333Y-168407200D01*
X53333333Y-168407200D02*
X53428571Y-168454819D01*
X53428571Y-168454819D02*
X53619047Y-168454819D01*
X53619047Y-168454819D02*
X53714285Y-168407200D01*
X53714285Y-168407200D02*
X53761904Y-168359580D01*
X53761904Y-168359580D02*
X53809523Y-168264342D01*
X53809523Y-168264342D02*
X53809523Y-167454819D01*
X54238095Y-167550057D02*
X54285714Y-167502438D01*
X54285714Y-167502438D02*
X54380952Y-167454819D01*
X54380952Y-167454819D02*
X54619047Y-167454819D01*
X54619047Y-167454819D02*
X54714285Y-167502438D01*
X54714285Y-167502438D02*
X54761904Y-167550057D01*
X54761904Y-167550057D02*
X54809523Y-167645295D01*
X54809523Y-167645295D02*
X54809523Y-167740533D01*
X54809523Y-167740533D02*
X54761904Y-167883390D01*
X54761904Y-167883390D02*
X54190476Y-168454819D01*
X54190476Y-168454819D02*
X54809523Y-168454819D01*
X27666666Y-170834819D02*
X27666666Y-171549104D01*
X27666666Y-171549104D02*
X27619047Y-171691961D01*
X27619047Y-171691961D02*
X27523809Y-171787200D01*
X27523809Y-171787200D02*
X27380952Y-171834819D01*
X27380952Y-171834819D02*
X27285714Y-171834819D01*
X28619047Y-170834819D02*
X28142857Y-170834819D01*
X28142857Y-170834819D02*
X28095238Y-171311009D01*
X28095238Y-171311009D02*
X28142857Y-171263390D01*
X28142857Y-171263390D02*
X28238095Y-171215771D01*
X28238095Y-171215771D02*
X28476190Y-171215771D01*
X28476190Y-171215771D02*
X28571428Y-171263390D01*
X28571428Y-171263390D02*
X28619047Y-171311009D01*
X28619047Y-171311009D02*
X28666666Y-171406247D01*
X28666666Y-171406247D02*
X28666666Y-171644342D01*
X28666666Y-171644342D02*
X28619047Y-171739580D01*
X28619047Y-171739580D02*
X28571428Y-171787200D01*
X28571428Y-171787200D02*
X28476190Y-171834819D01*
X28476190Y-171834819D02*
X28238095Y-171834819D01*
X28238095Y-171834819D02*
X28142857Y-171787200D01*
X28142857Y-171787200D02*
X28095238Y-171739580D01*
X43833333Y-152359580D02*
X43785714Y-152407200D01*
X43785714Y-152407200D02*
X43642857Y-152454819D01*
X43642857Y-152454819D02*
X43547619Y-152454819D01*
X43547619Y-152454819D02*
X43404762Y-152407200D01*
X43404762Y-152407200D02*
X43309524Y-152311961D01*
X43309524Y-152311961D02*
X43261905Y-152216723D01*
X43261905Y-152216723D02*
X43214286Y-152026247D01*
X43214286Y-152026247D02*
X43214286Y-151883390D01*
X43214286Y-151883390D02*
X43261905Y-151692914D01*
X43261905Y-151692914D02*
X43309524Y-151597676D01*
X43309524Y-151597676D02*
X43404762Y-151502438D01*
X43404762Y-151502438D02*
X43547619Y-151454819D01*
X43547619Y-151454819D02*
X43642857Y-151454819D01*
X43642857Y-151454819D02*
X43785714Y-151502438D01*
X43785714Y-151502438D02*
X43833333Y-151550057D01*
X44166667Y-151454819D02*
X44785714Y-151454819D01*
X44785714Y-151454819D02*
X44452381Y-151835771D01*
X44452381Y-151835771D02*
X44595238Y-151835771D01*
X44595238Y-151835771D02*
X44690476Y-151883390D01*
X44690476Y-151883390D02*
X44738095Y-151931009D01*
X44738095Y-151931009D02*
X44785714Y-152026247D01*
X44785714Y-152026247D02*
X44785714Y-152264342D01*
X44785714Y-152264342D02*
X44738095Y-152359580D01*
X44738095Y-152359580D02*
X44690476Y-152407200D01*
X44690476Y-152407200D02*
X44595238Y-152454819D01*
X44595238Y-152454819D02*
X44309524Y-152454819D01*
X44309524Y-152454819D02*
X44214286Y-152407200D01*
X44214286Y-152407200D02*
X44166667Y-152359580D01*
X48333333Y-159859580D02*
X48285714Y-159907200D01*
X48285714Y-159907200D02*
X48142857Y-159954819D01*
X48142857Y-159954819D02*
X48047619Y-159954819D01*
X48047619Y-159954819D02*
X47904762Y-159907200D01*
X47904762Y-159907200D02*
X47809524Y-159811961D01*
X47809524Y-159811961D02*
X47761905Y-159716723D01*
X47761905Y-159716723D02*
X47714286Y-159526247D01*
X47714286Y-159526247D02*
X47714286Y-159383390D01*
X47714286Y-159383390D02*
X47761905Y-159192914D01*
X47761905Y-159192914D02*
X47809524Y-159097676D01*
X47809524Y-159097676D02*
X47904762Y-159002438D01*
X47904762Y-159002438D02*
X48047619Y-158954819D01*
X48047619Y-158954819D02*
X48142857Y-158954819D01*
X48142857Y-158954819D02*
X48285714Y-159002438D01*
X48285714Y-159002438D02*
X48333333Y-159050057D01*
X49285714Y-159954819D02*
X48714286Y-159954819D01*
X49000000Y-159954819D02*
X49000000Y-158954819D01*
X49000000Y-158954819D02*
X48904762Y-159097676D01*
X48904762Y-159097676D02*
X48809524Y-159192914D01*
X48809524Y-159192914D02*
X48714286Y-159240533D01*
X69284819Y-125204166D02*
X68808628Y-125537499D01*
X69284819Y-125775594D02*
X68284819Y-125775594D01*
X68284819Y-125775594D02*
X68284819Y-125394642D01*
X68284819Y-125394642D02*
X68332438Y-125299404D01*
X68332438Y-125299404D02*
X68380057Y-125251785D01*
X68380057Y-125251785D02*
X68475295Y-125204166D01*
X68475295Y-125204166D02*
X68618152Y-125204166D01*
X68618152Y-125204166D02*
X68713390Y-125251785D01*
X68713390Y-125251785D02*
X68761009Y-125299404D01*
X68761009Y-125299404D02*
X68808628Y-125394642D01*
X68808628Y-125394642D02*
X68808628Y-125775594D01*
X68380057Y-124823213D02*
X68332438Y-124775594D01*
X68332438Y-124775594D02*
X68284819Y-124680356D01*
X68284819Y-124680356D02*
X68284819Y-124442261D01*
X68284819Y-124442261D02*
X68332438Y-124347023D01*
X68332438Y-124347023D02*
X68380057Y-124299404D01*
X68380057Y-124299404D02*
X68475295Y-124251785D01*
X68475295Y-124251785D02*
X68570533Y-124251785D01*
X68570533Y-124251785D02*
X68713390Y-124299404D01*
X68713390Y-124299404D02*
X69284819Y-124870832D01*
X69284819Y-124870832D02*
X69284819Y-124251785D01*
X59334819Y-115583333D02*
X60049104Y-115583333D01*
X60049104Y-115583333D02*
X60191961Y-115630952D01*
X60191961Y-115630952D02*
X60287200Y-115726190D01*
X60287200Y-115726190D02*
X60334819Y-115869047D01*
X60334819Y-115869047D02*
X60334819Y-115964285D01*
X59668152Y-114678571D02*
X60334819Y-114678571D01*
X59287200Y-114916666D02*
X60001485Y-115154761D01*
X60001485Y-115154761D02*
X60001485Y-114535714D01*
X59787200Y-180333332D02*
X59834819Y-180190475D01*
X59834819Y-180190475D02*
X59834819Y-179952380D01*
X59834819Y-179952380D02*
X59787200Y-179857142D01*
X59787200Y-179857142D02*
X59739580Y-179809523D01*
X59739580Y-179809523D02*
X59644342Y-179761904D01*
X59644342Y-179761904D02*
X59549104Y-179761904D01*
X59549104Y-179761904D02*
X59453866Y-179809523D01*
X59453866Y-179809523D02*
X59406247Y-179857142D01*
X59406247Y-179857142D02*
X59358628Y-179952380D01*
X59358628Y-179952380D02*
X59311009Y-180142856D01*
X59311009Y-180142856D02*
X59263390Y-180238094D01*
X59263390Y-180238094D02*
X59215771Y-180285713D01*
X59215771Y-180285713D02*
X59120533Y-180333332D01*
X59120533Y-180333332D02*
X59025295Y-180333332D01*
X59025295Y-180333332D02*
X58930057Y-180285713D01*
X58930057Y-180285713D02*
X58882438Y-180238094D01*
X58882438Y-180238094D02*
X58834819Y-180142856D01*
X58834819Y-180142856D02*
X58834819Y-179904761D01*
X58834819Y-179904761D02*
X58882438Y-179761904D01*
X58834819Y-179428570D02*
X59834819Y-179190475D01*
X59834819Y-179190475D02*
X59120533Y-178999999D01*
X59120533Y-178999999D02*
X59834819Y-178809523D01*
X59834819Y-178809523D02*
X58834819Y-178571428D01*
X59834819Y-177666666D02*
X59834819Y-178238094D01*
X59834819Y-177952380D02*
X58834819Y-177952380D01*
X58834819Y-177952380D02*
X58977676Y-178047618D01*
X58977676Y-178047618D02*
X59072914Y-178142856D01*
X59072914Y-178142856D02*
X59120533Y-178238094D01*
X44374819Y-178333333D02*
X45089104Y-178333333D01*
X45089104Y-178333333D02*
X45231961Y-178380952D01*
X45231961Y-178380952D02*
X45327200Y-178476190D01*
X45327200Y-178476190D02*
X45374819Y-178619047D01*
X45374819Y-178619047D02*
X45374819Y-178714285D01*
X44374819Y-177952380D02*
X44374819Y-177333333D01*
X44374819Y-177333333D02*
X44755771Y-177666666D01*
X44755771Y-177666666D02*
X44755771Y-177523809D01*
X44755771Y-177523809D02*
X44803390Y-177428571D01*
X44803390Y-177428571D02*
X44851009Y-177380952D01*
X44851009Y-177380952D02*
X44946247Y-177333333D01*
X44946247Y-177333333D02*
X45184342Y-177333333D01*
X45184342Y-177333333D02*
X45279580Y-177380952D01*
X45279580Y-177380952D02*
X45327200Y-177428571D01*
X45327200Y-177428571D02*
X45374819Y-177523809D01*
X45374819Y-177523809D02*
X45374819Y-177809523D01*
X45374819Y-177809523D02*
X45327200Y-177904761D01*
X45327200Y-177904761D02*
X45279580Y-177952380D01*
X59334819Y-103083333D02*
X60049104Y-103083333D01*
X60049104Y-103083333D02*
X60191961Y-103130952D01*
X60191961Y-103130952D02*
X60287200Y-103226190D01*
X60287200Y-103226190D02*
X60334819Y-103369047D01*
X60334819Y-103369047D02*
X60334819Y-103464285D01*
X59334819Y-102178571D02*
X59334819Y-102369047D01*
X59334819Y-102369047D02*
X59382438Y-102464285D01*
X59382438Y-102464285D02*
X59430057Y-102511904D01*
X59430057Y-102511904D02*
X59572914Y-102607142D01*
X59572914Y-102607142D02*
X59763390Y-102654761D01*
X59763390Y-102654761D02*
X60144342Y-102654761D01*
X60144342Y-102654761D02*
X60239580Y-102607142D01*
X60239580Y-102607142D02*
X60287200Y-102559523D01*
X60287200Y-102559523D02*
X60334819Y-102464285D01*
X60334819Y-102464285D02*
X60334819Y-102273809D01*
X60334819Y-102273809D02*
X60287200Y-102178571D01*
X60287200Y-102178571D02*
X60239580Y-102130952D01*
X60239580Y-102130952D02*
X60144342Y-102083333D01*
X60144342Y-102083333D02*
X59906247Y-102083333D01*
X59906247Y-102083333D02*
X59811009Y-102130952D01*
X59811009Y-102130952D02*
X59763390Y-102178571D01*
X59763390Y-102178571D02*
X59715771Y-102273809D01*
X59715771Y-102273809D02*
X59715771Y-102464285D01*
X59715771Y-102464285D02*
X59763390Y-102559523D01*
X59763390Y-102559523D02*
X59811009Y-102607142D01*
X59811009Y-102607142D02*
X59906247Y-102654761D01*
D12*
%TO.C,R1*%
X44910000Y-173227064D02*
X44910000Y-171772936D01*
X43090000Y-173227064D02*
X43090000Y-171772936D01*
%TO.C,R5*%
X59772936Y-171590000D02*
X61227064Y-171590000D01*
X59772936Y-173410000D02*
X61227064Y-173410000D01*
%TO.C,J2*%
X61380000Y-169620000D02*
X61380000Y-158880000D01*
X65000000Y-169620000D02*
X65000000Y-168380000D01*
X66000000Y-169620000D02*
X66000000Y-168380000D01*
X67300000Y-169620000D02*
X67300000Y-168380000D01*
X69420000Y-169620000D02*
X61380000Y-169620000D01*
X69420000Y-166800000D02*
X69420000Y-169620000D01*
X65000000Y-164620000D02*
X65000000Y-163312000D01*
X66000000Y-164620000D02*
X66000000Y-163312000D01*
X67300000Y-164620000D02*
X67300000Y-162043000D01*
X67300000Y-160957000D02*
X67300000Y-158880000D01*
X65000000Y-159688000D02*
X65000000Y-158880000D01*
X66000000Y-159688000D02*
X66000000Y-158880000D01*
X61380000Y-158880000D02*
X69420000Y-158880000D01*
X69420000Y-158880000D02*
X69420000Y-166200000D01*
X70030000Y-166940000D02*
X69420000Y-166500000D01*
X70030000Y-166060000D01*
X70030000Y-166940000D01*
G36*
X70030000Y-166940000D02*
G01*
X69420000Y-166500000D01*
X70030000Y-166060000D01*
X70030000Y-166940000D01*
G37*
%TO.C,D1*%
X69785000Y-173635000D02*
X69785000Y-171365000D01*
X69785000Y-171365000D02*
X65900000Y-171365000D01*
X65900000Y-173635000D02*
X69785000Y-173635000D01*
%TO.C,R3*%
X49910000Y-173264564D02*
X49910000Y-171810436D01*
X48090000Y-173264564D02*
X48090000Y-171810436D01*
%TO.C,BT1*%
D10*
X24500000Y-89850000D02*
X57500000Y-89850000D01*
X57500000Y-149050000D01*
X24500000Y-149050000D01*
X24500000Y-89850000D01*
D12*
%TO.C,J1*%
X70030000Y-154440000D02*
X69420000Y-154000000D01*
X70030000Y-153560000D01*
X70030000Y-154440000D01*
G36*
X70030000Y-154440000D02*
G01*
X69420000Y-154000000D01*
X70030000Y-153560000D01*
X70030000Y-154440000D01*
G37*
X69420000Y-146380000D02*
X69420000Y-153700000D01*
X61380000Y-146380000D02*
X69420000Y-146380000D01*
X66000000Y-147188000D02*
X66000000Y-146380000D01*
X65000000Y-147188000D02*
X65000000Y-146380000D01*
X67300000Y-148457000D02*
X67300000Y-146380000D01*
X67300000Y-152120000D02*
X67300000Y-149543000D01*
X66000000Y-152120000D02*
X66000000Y-150812000D01*
X65000000Y-152120000D02*
X65000000Y-150812000D01*
X69420000Y-154300000D02*
X69420000Y-157120000D01*
X69420000Y-157120000D02*
X61380000Y-157120000D01*
X67300000Y-157120000D02*
X67300000Y-155880000D01*
X66000000Y-157120000D02*
X66000000Y-155880000D01*
X65000000Y-157120000D02*
X65000000Y-155880000D01*
X61380000Y-157120000D02*
X61380000Y-146380000D01*
%TO.C,U1*%
X37965000Y-158065000D02*
X42085000Y-158065000D01*
X37965000Y-158130000D02*
X37965000Y-158065000D01*
X37965000Y-166935000D02*
X37965000Y-166870000D01*
X42085000Y-158065000D02*
X42085000Y-158130000D01*
X42085000Y-166870000D02*
X42085000Y-166935000D01*
X42085000Y-166935000D02*
X37965000Y-166935000D01*
X37425000Y-158130000D02*
X37185000Y-157800000D01*
X37665000Y-157800000D01*
X37425000Y-158130000D01*
G36*
X37425000Y-158130000D02*
G01*
X37185000Y-157800000D01*
X37665000Y-157800000D01*
X37425000Y-158130000D01*
G37*
%TO.C,U3*%
X67330000Y-131040000D02*
X62130000Y-131040000D01*
X62130000Y-131040000D02*
X62130000Y-136340000D01*
X67330000Y-132690000D02*
X67330000Y-131040000D01*
X67330000Y-136340000D02*
X67330000Y-134690000D01*
X62130000Y-136340000D02*
X67330000Y-136340000D01*
X67330000Y-134690000D02*
G75*
G02*
X67330000Y-132690000I0J1000000D01*
G01*
%TO.C,C2*%
X41211252Y-156410000D02*
X39788748Y-156410000D01*
X41211252Y-154590000D02*
X39788748Y-154590000D01*
%TO.C,U2*%
X51440000Y-165060000D02*
X51440000Y-160940000D01*
X51535000Y-165060000D02*
X51440000Y-165060000D01*
X56560000Y-165060000D02*
X56465000Y-165060000D01*
X51440000Y-160940000D02*
X51535000Y-160940000D01*
X56465000Y-160940000D02*
X56560000Y-160940000D01*
X56560000Y-160940000D02*
X56560000Y-165060000D01*
X51530000Y-165600000D02*
X51200000Y-165840000D01*
X51200000Y-165360000D01*
X51530000Y-165600000D01*
G36*
X51530000Y-165600000D02*
G01*
X51200000Y-165840000D01*
X51200000Y-165360000D01*
X51530000Y-165600000D01*
G37*
%TO.C,J5*%
X29380000Y-170380000D02*
X28000000Y-170380000D01*
X29380000Y-169000000D02*
X29380000Y-170380000D01*
X29380000Y-167730000D02*
X29380000Y-160000000D01*
X29380000Y-167730000D02*
X26620000Y-167730000D01*
X29380000Y-160000000D02*
X26620000Y-160000000D01*
X26620000Y-167730000D02*
X26620000Y-160000000D01*
%TO.C,C3*%
X39788748Y-151090000D02*
X41211252Y-151090000D01*
X39788748Y-152910000D02*
X41211252Y-152910000D01*
%TO.C,C1*%
X49410000Y-162313748D02*
X49410000Y-163736252D01*
X47590000Y-162313748D02*
X47590000Y-163736252D01*
%TO.C,R2*%
X67910000Y-124310436D02*
X67910000Y-125764564D01*
X66090000Y-124310436D02*
X66090000Y-125764564D01*
%TO.C,J4*%
X60880000Y-120620000D02*
X60880000Y-109880000D01*
X64500000Y-120620000D02*
X64500000Y-119380000D01*
X65500000Y-120620000D02*
X65500000Y-119380000D01*
X66800000Y-120620000D02*
X66800000Y-119380000D01*
X68920000Y-120620000D02*
X60880000Y-120620000D01*
X68920000Y-117800000D02*
X68920000Y-120620000D01*
X64500000Y-115620000D02*
X64500000Y-114312000D01*
X65500000Y-115620000D02*
X65500000Y-114312000D01*
X66800000Y-115620000D02*
X66800000Y-113043000D01*
X66800000Y-111957000D02*
X66800000Y-109880000D01*
X64500000Y-110688000D02*
X64500000Y-109880000D01*
X65500000Y-110688000D02*
X65500000Y-109880000D01*
X60880000Y-109880000D02*
X68920000Y-109880000D01*
X68920000Y-109880000D02*
X68920000Y-117200000D01*
X69530000Y-117940000D02*
X68920000Y-117500000D01*
X69530000Y-117060000D01*
X69530000Y-117940000D01*
G36*
X69530000Y-117940000D02*
G01*
X68920000Y-117500000D01*
X69530000Y-117060000D01*
X69530000Y-117940000D01*
G37*
%TO.C,SW1*%
X58380000Y-177620000D02*
X58380000Y-179000000D01*
X57000000Y-177620000D02*
X58380000Y-177620000D01*
X55730000Y-177620000D02*
X50540000Y-177620000D01*
X55730000Y-177620000D02*
X55730000Y-180380000D01*
X50540000Y-177620000D02*
X50540000Y-180380000D01*
X55730000Y-180380000D02*
X50540000Y-180380000D01*
%TO.C,J3*%
X43920000Y-176620000D02*
X43920000Y-178000000D01*
X42540000Y-176620000D02*
X43920000Y-176620000D01*
X41270000Y-176620000D02*
X36080000Y-176620000D01*
X41270000Y-176620000D02*
X41270000Y-179380000D01*
X36080000Y-176620000D02*
X36080000Y-179380000D01*
X41270000Y-179380000D02*
X36080000Y-179380000D01*
%TO.C,J6*%
X60880000Y-108120000D02*
X60880000Y-97380000D01*
X64500000Y-108120000D02*
X64500000Y-106880000D01*
X65500000Y-108120000D02*
X65500000Y-106880000D01*
X66800000Y-108120000D02*
X66800000Y-106880000D01*
X68920000Y-108120000D02*
X60880000Y-108120000D01*
X68920000Y-105300000D02*
X68920000Y-108120000D01*
X64500000Y-103120000D02*
X64500000Y-101812000D01*
X65500000Y-103120000D02*
X65500000Y-101812000D01*
X66800000Y-103120000D02*
X66800000Y-100543000D01*
X66800000Y-99457000D02*
X66800000Y-97380000D01*
X64500000Y-98188000D02*
X64500000Y-97380000D01*
X65500000Y-98188000D02*
X65500000Y-97380000D01*
X60880000Y-97380000D02*
X68920000Y-97380000D01*
X68920000Y-97380000D02*
X68920000Y-104700000D01*
X69530000Y-105440000D02*
X68920000Y-105000000D01*
X69530000Y-104560000D01*
X69530000Y-105440000D01*
G36*
X69530000Y-105440000D02*
G01*
X68920000Y-105000000D01*
X69530000Y-104560000D01*
X69530000Y-105440000D01*
G37*
%TD*%
M02*
