%TF.GenerationSoftware,KiCad,Pcbnew,9.0.7*%
%TF.CreationDate,2026-02-26T16:04:07+01:00*%
%TF.ProjectId,attiny_switch,61747469-6e79-45f7-9377-697463682e6b,rev?*%
%TF.SameCoordinates,Original*%
%TF.FileFunction,Copper,L1,Top*%
%TF.FilePolarity,Positive*%
%FSLAX46Y46*%
G04 Gerber Fmt 4.6, Leading zero omitted, Abs format (unit mm)*
G04 Created by KiCad (PCBNEW 9.0.7) date 2026-02-26 16:04:07*
%MOMM*%
%LPD*%
G01*
G04 APERTURE LIST*
G04 Aperture macros list*
%AMRoundRect*
0 Rectangle with rounded corners*
0 $1 Rounding radius*
0 $2 $3 $4 $5 $6 $7 $8 $9 X,Y pos of 4 corners*
0 Add a 4 corners polygon primitive as box body*
4,1,4,$2,$3,$4,$5,$6,$7,$8,$9,$2,$3,0*
0 Add four circle primitives for the rounded corners*
1,1,$1+$1,$2,$3*
1,1,$1+$1,$4,$5*
1,1,$1+$1,$6,$7*
1,1,$1+$1,$8,$9*
0 Add four rect primitives between the rounded corners*
20,1,$1+$1,$2,$3,$4,$5,0*
20,1,$1+$1,$4,$5,$6,$7,0*
20,1,$1+$1,$6,$7,$8,$9,0*
20,1,$1+$1,$8,$9,$2,$3,0*%
G04 Aperture macros list end*
%TA.AperFunction,SMDPad,CuDef*%
%ADD10RoundRect,0.250000X0.625000X-0.312500X0.625000X0.312500X-0.625000X0.312500X-0.625000X-0.312500X0*%
%TD*%
%TA.AperFunction,SMDPad,CuDef*%
%ADD11RoundRect,0.250000X-0.312500X-0.625000X0.312500X-0.625000X0.312500X0.625000X-0.312500X0.625000X0*%
%TD*%
%TA.AperFunction,ComponentPad*%
%ADD12RoundRect,0.250001X1.149999X-1.149999X1.149999X1.149999X-1.149999X1.149999X-1.149999X-1.149999X0*%
%TD*%
%TA.AperFunction,ComponentPad*%
%ADD13C,2.800000*%
%TD*%
%TA.AperFunction,SMDPad,CuDef*%
%ADD14RoundRect,0.250000X0.375000X0.625000X-0.375000X0.625000X-0.375000X-0.625000X0.375000X-0.625000X0*%
%TD*%
%TA.AperFunction,ComponentPad*%
%ADD15C,3.000000*%
%TD*%
%TA.AperFunction,SMDPad,CuDef*%
%ADD16RoundRect,0.150000X-0.825000X-0.150000X0.825000X-0.150000X0.825000X0.150000X-0.825000X0.150000X0*%
%TD*%
%TA.AperFunction,ComponentPad*%
%ADD17RoundRect,0.250000X-0.550000X0.550000X-0.550000X-0.550000X0.550000X-0.550000X0.550000X0.550000X0*%
%TD*%
%TA.AperFunction,ComponentPad*%
%ADD18C,1.600000*%
%TD*%
%TA.AperFunction,SMDPad,CuDef*%
%ADD19RoundRect,0.250000X0.325000X0.650000X-0.325000X0.650000X-0.325000X-0.650000X0.325000X-0.650000X0*%
%TD*%
%TA.AperFunction,SMDPad,CuDef*%
%ADD20RoundRect,0.150000X0.150000X-0.825000X0.150000X0.825000X-0.150000X0.825000X-0.150000X-0.825000X0*%
%TD*%
%TA.AperFunction,ComponentPad*%
%ADD21R,1.700000X1.700000*%
%TD*%
%TA.AperFunction,ComponentPad*%
%ADD22C,1.700000*%
%TD*%
%TA.AperFunction,SMDPad,CuDef*%
%ADD23RoundRect,0.250000X-0.325000X-0.650000X0.325000X-0.650000X0.325000X0.650000X-0.325000X0.650000X0*%
%TD*%
%TA.AperFunction,SMDPad,CuDef*%
%ADD24RoundRect,0.250000X-0.650000X0.325000X-0.650000X-0.325000X0.650000X-0.325000X0.650000X0.325000X0*%
%TD*%
%TA.AperFunction,SMDPad,CuDef*%
%ADD25RoundRect,0.250000X-0.625000X0.312500X-0.625000X-0.312500X0.625000X-0.312500X0.625000X0.312500X0*%
%TD*%
%TA.AperFunction,Conductor*%
%ADD26C,0.500000*%
%TD*%
%TA.AperFunction,Conductor*%
%ADD27C,1.000000*%
%TD*%
G04 APERTURE END LIST*
D10*
%TO.P,R1,2*%
%TO.N,Net-(J3-Pin_2)*%
X44000000Y-171037500D03*
%TO.P,R1,1*%
%TO.N,Net-(BT1-+)*%
X44000000Y-173962500D03*
%TD*%
D11*
%TO.P,R5,1*%
%TO.N,Net-(J2-Pin_1)*%
X59037500Y-172500000D03*
%TO.P,R5,2*%
%TO.N,Net-(D1-A)*%
X61962500Y-172500000D03*
%TD*%
D12*
%TO.P,J2,1,Pin_1*%
%TO.N,Net-(J2-Pin_1)*%
X65500000Y-166500000D03*
D13*
%TO.P,J2,2,Pin_2*%
%TO.N,GND*%
X65500000Y-161500000D03*
%TD*%
D14*
%TO.P,D1,1,K*%
%TO.N,GND*%
X68900000Y-172500000D03*
%TO.P,D1,2,A*%
%TO.N,Net-(D1-A)*%
X66100000Y-172500000D03*
%TD*%
D10*
%TO.P,R3,2*%
%TO.N,Net-(SW1A-C)*%
X49000000Y-171075000D03*
%TO.P,R3,1*%
%TO.N,GND*%
X49000000Y-174000000D03*
%TD*%
D15*
%TO.P,BT1,2,-*%
%TO.N,GND*%
X48400000Y-146550000D03*
%TO.P,BT1,1,+*%
%TO.N,Net-(BT1-+)*%
X33600000Y-146550000D03*
%TD*%
D13*
%TO.P,J1,2,Pin_2*%
%TO.N,GND*%
X65500000Y-149000000D03*
D12*
%TO.P,J1,1,Pin_1*%
%TO.N,Net-(J1-Pin_1)*%
X65500000Y-154000000D03*
%TD*%
D16*
%TO.P,U1,1,VCC*%
%TO.N,Net-(BT1-+)*%
X37550000Y-158690000D03*
%TO.P,U1,2,PA4*%
%TO.N,unconnected-(U1-PA4-Pad2)*%
X37550000Y-159960000D03*
%TO.P,U1,3,PA5*%
%TO.N,unconnected-(U1-PA5-Pad3)*%
X37550000Y-161230000D03*
%TO.P,U1,4,PA6*%
%TO.N,unconnected-(U1-PA6-Pad4)*%
X37550000Y-162500000D03*
%TO.P,U1,5,PA7*%
%TO.N,unconnected-(U1-PA7-Pad5)*%
X37550000Y-163770000D03*
%TO.P,U1,6,PB3*%
%TO.N,Net-(J5-Pin_3)*%
X37550000Y-165040000D03*
%TO.P,U1,7,PB2*%
%TO.N,Net-(J5-Pin_2)*%
X37550000Y-166310000D03*
%TO.P,U1,8,PB1*%
%TO.N,unconnected-(U1-PB1-Pad8)*%
X42500000Y-166310000D03*
%TO.P,U1,9,PB0*%
%TO.N,unconnected-(U1-PB0-Pad9)*%
X42500000Y-165040000D03*
%TO.P,U1,10,~{RESET}/PA0*%
%TO.N,Net-(J3-Pin_2)*%
X42500000Y-163770000D03*
%TO.P,U1,11,PA1*%
%TO.N,Net-(SW1A-C)*%
X42500000Y-162500000D03*
%TO.P,U1,12,PA2*%
%TO.N,Net-(J6-Pin_1)*%
X42500000Y-161230000D03*
%TO.P,U1,13,PA3*%
%TO.N,unconnected-(U1-PA3-Pad13)*%
X42500000Y-159960000D03*
%TO.P,U1,14,GND*%
%TO.N,GND*%
X42500000Y-158690000D03*
%TD*%
D17*
%TO.P,U3,1*%
%TO.N,Net-(R2-Pad2)*%
X66000000Y-129880000D03*
D18*
%TO.P,U3,2*%
%TO.N,Net-(J4-Pin_2)*%
X63460000Y-129880000D03*
%TO.P,U3,3*%
%TO.N,GND*%
X63460000Y-137500000D03*
%TO.P,U3,4*%
%TO.N,Net-(J6-Pin_1)*%
X66000000Y-137500000D03*
%TD*%
D19*
%TO.P,C2,1*%
%TO.N,GND*%
X41975000Y-155500000D03*
%TO.P,C2,2*%
%TO.N,Net-(BT1-+)*%
X39025000Y-155500000D03*
%TD*%
D20*
%TO.P,U2,1,GND*%
%TO.N,GND*%
X52095000Y-165475000D03*
%TO.P,U2,2,IN*%
%TO.N,Net-(SW1A-B)*%
X53365000Y-165475000D03*
%TO.P,U2,3,OUT*%
%TO.N,Net-(J2-Pin_1)*%
X54635000Y-165475000D03*
%TO.P,U2,4,NC*%
%TO.N,unconnected-(U2-NC-Pad4)*%
X55905000Y-165475000D03*
%TO.P,U2,5,VBB_1*%
%TO.N,Net-(J1-Pin_1)*%
X55905000Y-160525000D03*
%TO.P,U2,6,VBB_2*%
X54635000Y-160525000D03*
%TO.P,U2,7,VBB_3*%
X53365000Y-160525000D03*
%TO.P,U2,8,VBB_4*%
X52095000Y-160525000D03*
%TD*%
D21*
%TO.P,J5,1,Pin_1*%
%TO.N,Net-(BT1-+)*%
X28000000Y-169000000D03*
D22*
%TO.P,J5,2,Pin_2*%
%TO.N,Net-(J5-Pin_2)*%
X28000000Y-166460000D03*
%TO.P,J5,3,Pin_3*%
%TO.N,Net-(J5-Pin_3)*%
X28000000Y-163920000D03*
%TO.P,J5,4,Pin_4*%
%TO.N,GND*%
X28000000Y-161380000D03*
%TD*%
D23*
%TO.P,C3,1*%
%TO.N,Net-(BT1-+)*%
X39025000Y-152000000D03*
%TO.P,C3,2*%
%TO.N,GND*%
X41975000Y-152000000D03*
%TD*%
D24*
%TO.P,C1,1*%
%TO.N,Net-(J1-Pin_1)*%
X48500000Y-161550000D03*
%TO.P,C1,2*%
%TO.N,GND*%
X48500000Y-164500000D03*
%TD*%
D25*
%TO.P,R2,1*%
%TO.N,Net-(J4-Pin_1)*%
X67000000Y-123575000D03*
%TO.P,R2,2*%
%TO.N,Net-(R2-Pad2)*%
X67000000Y-126500000D03*
%TD*%
D12*
%TO.P,J4,1,Pin_1*%
%TO.N,Net-(J4-Pin_1)*%
X65000000Y-117500000D03*
D13*
%TO.P,J4,2,Pin_2*%
%TO.N,Net-(J4-Pin_2)*%
X65000000Y-112500000D03*
%TD*%
D21*
%TO.P,SW1,1,A*%
%TO.N,Net-(BT1-+)*%
X57000000Y-179000000D03*
D22*
%TO.P,SW1,2,B*%
%TO.N,Net-(SW1A-B)*%
X54460000Y-179000000D03*
%TO.P,SW1,3,C*%
%TO.N,Net-(SW1A-C)*%
X51920000Y-179000000D03*
%TD*%
D21*
%TO.P,J3,1,Pin_1*%
%TO.N,Net-(BT1-+)*%
X42540000Y-178000000D03*
D22*
%TO.P,J3,2,Pin_2*%
%TO.N,Net-(J3-Pin_2)*%
X40000000Y-178000000D03*
%TO.P,J3,3,Pin_3*%
%TO.N,GND*%
X37460000Y-178000000D03*
%TD*%
D12*
%TO.P,J6,1,Pin_1*%
%TO.N,Net-(J6-Pin_1)*%
X65000000Y-105000000D03*
D13*
%TO.P,J6,2,Pin_2*%
%TO.N,GND*%
X65000000Y-100000000D03*
%TD*%
D26*
%TO.N,Net-(BT1-+)*%
X28000000Y-169000000D02*
X26699000Y-167699000D01*
X26699000Y-167699000D02*
X26699000Y-160841108D01*
X26699000Y-160841108D02*
X28850108Y-158690000D01*
X28850108Y-158690000D02*
X37550000Y-158690000D01*
%TO.N,Net-(J6-Pin_1)*%
X66000000Y-137500000D02*
X66000000Y-138631370D01*
X66000000Y-138631370D02*
X43401370Y-161230000D01*
X43401370Y-161230000D02*
X42500000Y-161230000D01*
%TO.N,GND*%
X65000000Y-100000000D02*
X62209000Y-102791000D01*
X62209000Y-102791000D02*
X62209000Y-136249000D01*
X62209000Y-136249000D02*
X63460000Y-137500000D01*
%TO.N,Net-(J6-Pin_1)*%
X65000000Y-105000000D02*
X68326000Y-108326000D01*
X68326000Y-108326000D02*
X68326000Y-135174000D01*
X68326000Y-135174000D02*
X66000000Y-137500000D01*
%TO.N,Net-(R2-Pad2)*%
X67000000Y-126500000D02*
X67000000Y-128880000D01*
X67000000Y-128880000D02*
X66000000Y-129880000D01*
%TO.N,Net-(J4-Pin_1)*%
X65000000Y-117500000D02*
X65000000Y-121575000D01*
X65000000Y-121575000D02*
X67000000Y-123575000D01*
%TO.N,Net-(J4-Pin_2)*%
X65000000Y-112500000D02*
X63000000Y-114500000D01*
X63000000Y-114500000D02*
X63000000Y-129420000D01*
X63000000Y-129420000D02*
X63460000Y-129880000D01*
D27*
%TO.N,GND*%
X49500000Y-163500000D02*
X50120000Y-163500000D01*
D26*
X52095000Y-165475000D02*
X50120000Y-163500000D01*
%TO.N,Net-(BT1-+)*%
X42540000Y-178000000D02*
X42540000Y-175422500D01*
X42540000Y-175422500D02*
X44000000Y-173962500D01*
%TO.N,Net-(SW1A-B)*%
X54460000Y-179000000D02*
X53365000Y-177905000D01*
X53365000Y-177905000D02*
X53365000Y-165475000D01*
%TO.N,Net-(SW1A-C)*%
X49000000Y-171075000D02*
X51920000Y-173995000D01*
X51920000Y-173995000D02*
X51920000Y-179000000D01*
X49000000Y-171075000D02*
X49000000Y-168025001D01*
X49000000Y-168025001D02*
X43474999Y-162500000D01*
X43474999Y-162500000D02*
X42500000Y-162500000D01*
%TO.N,GND*%
X37460000Y-178000000D02*
X38761000Y-179301000D01*
X38761000Y-179301000D02*
X43699000Y-179301000D01*
X43699000Y-179301000D02*
X49000000Y-174000000D01*
%TO.N,Net-(J3-Pin_2)*%
X40500000Y-167537500D02*
X40500000Y-164500000D01*
X44000000Y-171037500D02*
X40500000Y-167537500D01*
X40500000Y-164500000D02*
X41230000Y-163770000D01*
X41230000Y-163770000D02*
X42500000Y-163770000D01*
X40000000Y-178000000D02*
X40000000Y-175037500D01*
X40000000Y-175037500D02*
X44000000Y-171037500D01*
%TO.N,Net-(J5-Pin_2)*%
X28000000Y-166460000D02*
X37400000Y-166460000D01*
X37400000Y-166460000D02*
X37550000Y-166310000D01*
%TO.N,Net-(J5-Pin_3)*%
X28000000Y-163920000D02*
X29120000Y-165040000D01*
X29120000Y-165040000D02*
X37550000Y-165040000D01*
%TO.N,GND*%
X41975000Y-155500000D02*
X41975000Y-158165000D01*
X41975000Y-158165000D02*
X42500000Y-158690000D01*
X41975000Y-152000000D02*
X41975000Y-155500000D01*
X48400000Y-146550000D02*
X42950000Y-152000000D01*
X42950000Y-152000000D02*
X41975000Y-152000000D01*
%TO.N,Net-(BT1-+)*%
X39025000Y-152000000D02*
X39025000Y-151975000D01*
X39025000Y-151975000D02*
X33600000Y-146550000D01*
X39025000Y-155500000D02*
X39025000Y-152000000D01*
X37550000Y-158690000D02*
X37550000Y-156975000D01*
X37550000Y-156975000D02*
X39025000Y-155500000D01*
D27*
%TO.N,GND*%
X68900000Y-172500000D02*
X68900000Y-164900000D01*
X68900000Y-164900000D02*
X65500000Y-161500000D01*
%TO.N,Net-(D1-A)*%
X61962500Y-172500000D02*
X66100000Y-172500000D01*
%TO.N,Net-(J2-Pin_1)*%
X56500000Y-167151000D02*
X55336001Y-167151000D01*
X56500000Y-167151000D02*
X59037500Y-169688500D01*
X59037500Y-169688500D02*
X59037500Y-172500000D01*
X64849000Y-167151000D02*
X56500000Y-167151000D01*
X65500000Y-166500000D02*
X64849000Y-167151000D01*
X55336001Y-167151000D02*
X54635000Y-166449999D01*
X54635000Y-166449999D02*
X54635000Y-165475000D01*
%TO.N,Net-(J1-Pin_1)*%
X52095000Y-160525000D02*
X49525000Y-160525000D01*
X49525000Y-160525000D02*
X48500000Y-161550000D01*
X55905000Y-160525000D02*
X52095000Y-160525000D01*
X65500000Y-154000000D02*
X62430000Y-154000000D01*
X62430000Y-154000000D02*
X55905000Y-160525000D01*
%TO.N,GND*%
X63500000Y-163500000D02*
X65500000Y-161500000D01*
X50120000Y-163500000D02*
X63500000Y-163500000D01*
X48500000Y-164500000D02*
X49500000Y-163500000D01*
%TD*%
M02*
